<svg width="14" height="156" viewBox="0 0 14 156" fill="none" xmlns="http://www.w3.org/2000/svg">
<path d="M10.606 147.054V152.058L13 152.886V155.532L0.417999 151.014V148.08L13 143.562L13 146.226L10.606 147.054ZM8.59 147.738L3.334 149.556L8.59 151.374L8.59 147.738ZM6.7 142.485C5.464 142.485 4.36 142.209 3.388 141.657C2.404 141.093 1.642 140.331 1.102 139.371C0.55 138.399 0.274 137.313 0.274 136.113C0.274 134.709 0.634 133.479 1.354 132.423C2.074 131.367 3.07 130.629 4.342 130.209V133.107C3.742 133.395 3.292 133.803 2.992 134.331C2.692 134.847 2.542 135.447 2.542 136.131C2.542 136.863 2.716 137.517 3.064 138.093C3.4 138.657 3.88 139.101 4.504 139.425C5.128 139.737 5.86 139.893 6.7 139.893C7.528 139.893 8.26 139.737 8.896 139.425C9.52 139.101 10.006 138.657 10.354 138.093C10.69 137.517 10.858 136.863 10.858 136.131C10.858 135.447 10.708 134.847 10.408 134.331C10.096 133.803 9.64 133.395 9.04 133.107V130.209C10.324 130.629 11.326 131.367 12.046 132.423C12.754 133.467 13.108 134.697 13.108 136.113C13.108 137.313 12.838 138.399 12.298 139.371C11.746 140.331 10.984 141.093 10.012 141.657C9.04 142.209 7.936 142.485 6.7 142.485ZM6.7 128.669C5.464 128.669 4.36 128.393 3.388 127.841C2.404 127.277 1.642 126.515 1.102 125.555C0.55 124.583 0.274 123.497 0.274 122.297C0.274 120.893 0.634 119.663 1.354 118.607C2.074 117.551 3.07 116.813 4.342 116.393V119.291C3.742 119.579 3.292 119.987 2.992 120.515C2.692 121.031 2.542 121.631 2.542 122.315C2.542 123.047 2.716 123.701 3.064 124.277C3.4 124.841 3.88 125.285 4.504 125.609C5.128 125.921 5.86 126.077 6.7 126.077C7.528 126.077 8.26 125.921 8.896 125.609C9.52 125.285 10.006 124.841 10.354 124.277C10.69 123.701 10.858 123.047 10.858 122.315C10.858 121.631 10.708 121.031 10.408 120.515C10.096 119.987 9.64 119.579 9.04 119.291V116.393C10.324 116.813 11.326 117.551 12.046 118.607C12.754 119.651 13.108 120.881 13.108 122.297C13.108 123.497 12.838 124.583 12.298 125.555C11.746 126.515 10.984 127.277 10.012 127.841C9.04 128.393 7.936 128.669 6.7 128.669ZM13.126 108.408C13.126 109.584 12.85 110.664 12.298 111.648C11.746 112.632 10.984 113.412 10.012 113.988C9.028 114.564 7.918 114.852 6.682 114.852C5.458 114.852 4.36 114.564 3.388 113.988C2.404 113.412 1.636 112.632 1.084 111.648C0.532 110.664 0.256 109.584 0.256 108.408C0.256 107.22 0.532 106.14 1.084 105.168C1.636 104.184 2.404 103.41 3.388 102.846C4.36 102.27 5.458 101.982 6.682 101.982C7.918 101.982 9.028 102.27 10.012 102.846C10.984 103.41 11.746 104.184 12.298 105.168C12.85 106.152 13.126 107.232 13.126 108.408ZM10.876 108.408C10.876 107.652 10.708 106.986 10.372 106.41C10.024 105.834 9.532 105.384 8.896 105.06C8.26 104.736 7.522 104.574 6.682 104.574C5.842 104.574 5.11 104.736 4.486 105.06C3.85 105.384 3.364 105.834 3.028 106.41C2.692 106.986 2.524 107.652 2.524 108.408C2.524 109.164 2.692 109.836 3.028 110.424C3.364 111 3.85 111.45 4.486 111.774C5.11 112.098 5.842 112.26 6.682 112.26C7.522 112.26 8.26 112.098 8.896 111.774C9.532 111.45 10.024 111 10.372 110.424C10.708 109.836 10.876 109.164 10.876 108.408ZM0.436 97.6236H8.212C9.064 97.6236 9.718 97.4016 10.174 96.9576C10.618 96.5136 10.84 95.8896 10.84 95.0856C10.84 94.2696 10.618 93.6396 10.174 93.1956C9.718 92.7516 9.064 92.5296 8.212 92.5296H0.436V89.9916H8.194C9.262 89.9916 10.168 90.2256 10.912 90.6936C11.644 91.1496 12.196 91.7676 12.568 92.5476C12.94 93.3156 13.126 94.1736 13.126 95.1216C13.126 96.0576 12.94 96.9096 12.568 97.6776C12.196 98.4336 11.644 99.0336 10.912 99.4776C10.168 99.9216 9.262 100.144 8.194 100.144H0.436V97.6236ZM13 76.8108V79.3308L4.378 85.0368H13V87.5568H0.417999V85.0368L9.058 79.3308H0.417999L0.417999 76.8108H13ZM0.436 65.7705H2.47L2.47 69.1185H13V71.6385H2.47V74.9865H0.436L0.436 65.7705ZM10.606 56.2278V61.2318L13 62.0598V64.7058L0.417999 60.1878L0.417999 57.2538L13 52.7358V55.3998L10.606 56.2278ZM8.59 56.9118L3.334 58.7298L8.59 60.5478L8.59 56.9118ZM6.556 43.9191C6.688 43.2111 7.042 42.6291 7.618 42.1731C8.194 41.7171 8.854 41.4891 9.598 41.4891C10.27 41.4891 10.864 41.6571 11.38 41.9931C11.884 42.3171 12.28 42.7911 12.568 43.4151C12.856 44.0391 13 44.7771 13 45.6291V51.0471H0.436L0.436 45.8631C0.436 45.0111 0.574 44.2791 0.85 43.6671C1.126 43.0431 1.51 42.5751 2.002 42.2631C2.494 41.9391 3.052 41.7771 3.676 41.7771C4.408 41.7771 5.02 41.9751 5.512 42.3711C6.004 42.7551 6.352 43.2711 6.556 43.9191ZM5.62 48.5271V46.2231C5.62 45.6231 5.488 45.1611 5.224 44.8371C4.948 44.5131 4.558 44.3511 4.054 44.3511C3.55 44.3511 3.16 44.5131 2.884 44.8371C2.608 45.1611 2.47 45.6231 2.47 46.2231V48.5271H5.62ZM10.948 45.9891C10.948 45.3771 10.804 44.9031 10.516 44.5671C10.228 44.2191 9.82 44.0451 9.292 44.0451C8.752 44.0451 8.332 44.2251 8.032 44.5851C7.72 44.9451 7.564 45.4311 7.564 46.0431V48.5271H10.948V45.9891ZM0.436 36.9607H13V39.4807H0.436V36.9607ZM11.002 31.9509L11.002 27.8109H13L13 34.4709H0.436V31.9509H11.002ZM0.436 23.6892H13V26.2092H0.436L0.436 23.6892ZM0.436 12.6494H2.47V15.9974H13V18.5174H2.47V21.8654H0.436L0.436 12.6494ZM0.436 0.820734L8.626 5.06873H13V7.58873H8.626L0.436 11.8547V9.01073L6.178 6.31073L0.436 3.62873L0.436 0.820734Z" fill="white"/>
</svg>
