<svg width="1292" height="110" viewBox="0 0 1292 110" fill="none" xmlns="http://www.w3.org/2000/svg">
<path d="M17.009 29.754V81H4.526V29.754H17.009ZM71.8993 81H59.4163L38.5383 49.391V81H26.0553V29.754H38.5383L59.4163 61.509V29.754H71.8993V81ZM117.813 29.754V39.755H104.235V81H91.7519V39.755H78.1739V29.754H117.813ZM150.212 81L139.554 61.655H136.561V81H124.078V29.754H145.029C149.068 29.754 152.499 30.4597 155.322 31.871C158.193 33.2823 160.334 35.229 161.746 37.711C163.157 40.1443 163.863 42.8697 163.863 45.887C163.863 49.2937 162.889 52.3353 160.943 55.012C159.045 57.6887 156.222 59.5867 152.475 60.706L164.301 81H150.212ZM136.561 52.822H144.299C146.586 52.822 148.289 52.2623 149.409 51.143C150.577 50.0237 151.161 48.442 151.161 46.398C151.161 44.4513 150.577 42.9183 149.409 41.799C148.289 40.6797 146.586 40.12 144.299 40.12H136.561V52.822ZM195.935 81.511C191.117 81.511 186.688 80.3917 182.649 78.153C178.658 75.9143 175.471 72.7997 173.086 68.809C170.75 64.7697 169.582 60.2437 169.582 55.231C169.582 50.2183 170.75 45.7167 173.086 41.726C175.471 37.7353 178.658 34.6207 182.649 32.382C186.688 30.1433 191.117 29.024 195.935 29.024C200.753 29.024 205.157 30.1433 209.148 32.382C213.187 34.6207 216.351 37.7353 218.638 41.726C220.974 45.7167 222.142 50.2183 222.142 55.231C222.142 60.2437 220.974 64.7697 218.638 68.809C216.302 72.7997 213.139 75.9143 209.148 78.153C205.157 80.3917 200.753 81.511 195.935 81.511ZM195.935 70.123C200.023 70.123 203.284 68.7603 205.717 66.035C208.199 63.3097 209.44 59.7083 209.44 55.231C209.44 50.705 208.199 47.1037 205.717 44.427C203.284 41.7017 200.023 40.339 195.935 40.339C191.798 40.339 188.489 41.6773 186.007 44.354C183.574 47.0307 182.357 50.6563 182.357 55.231C182.357 59.757 183.574 63.3827 186.007 66.108C188.489 68.7847 191.798 70.123 195.935 70.123ZM248.286 29.754C253.688 29.754 258.408 30.8247 262.448 32.966C266.487 35.1073 269.602 38.1247 271.792 42.018C274.03 45.8627 275.15 50.3157 275.15 55.377C275.15 60.3897 274.03 64.8427 271.792 68.736C269.602 72.6293 266.463 75.6467 262.375 77.788C258.335 79.9293 253.639 81 248.286 81H229.087V29.754H248.286ZM247.483 70.196C252.203 70.196 255.878 68.9063 258.506 66.327C261.134 63.7477 262.448 60.0977 262.448 55.377C262.448 50.6563 261.134 46.982 258.506 44.354C255.878 41.726 252.203 40.412 247.483 40.412H241.57V70.196H247.483ZM294.39 29.754V60.414C294.39 63.48 295.144 65.8403 296.653 67.495C298.161 69.1497 300.376 69.977 303.296 69.977C306.216 69.977 308.454 69.1497 310.012 67.495C311.569 65.8403 312.348 63.48 312.348 60.414V29.754H324.831V60.341C324.831 64.9157 323.857 68.7847 321.911 71.948C319.964 75.1113 317.336 77.496 314.027 79.102C310.766 80.708 307.116 81.511 303.077 81.511C299.037 81.511 295.412 80.7323 292.2 79.175C289.036 77.569 286.53 75.1843 284.681 72.021C282.831 68.809 281.907 64.9157 281.907 60.341V29.754H294.39ZM331.479 55.304C331.479 50.2427 332.574 45.741 334.764 41.799C336.954 37.8083 339.996 34.718 343.889 32.528C347.831 30.2893 352.284 29.17 357.248 29.17C363.332 29.17 368.539 30.776 372.87 33.988C377.202 37.2 380.097 41.58 381.557 47.128H367.833C366.811 44.9867 365.351 43.3563 363.453 42.237C361.604 41.1177 359.487 40.558 357.102 40.558C353.258 40.558 350.143 41.8963 347.758 44.573C345.374 47.2497 344.181 50.8267 344.181 55.304C344.181 59.7813 345.374 63.3583 347.758 66.035C350.143 68.7117 353.258 70.05 357.102 70.05C359.487 70.05 361.604 69.4903 363.453 68.371C365.351 67.2517 366.811 65.6213 367.833 63.48H381.557C380.097 69.028 377.202 73.408 372.87 76.62C368.539 79.7833 363.332 81.365 357.248 81.365C352.284 81.365 347.831 80.27 343.889 78.08C339.996 75.8413 336.954 72.751 334.764 68.809C332.574 64.867 331.479 60.3653 331.479 55.304ZM401.685 29.754V81H389.202V29.754H401.685ZM456.575 81H444.092L423.214 49.391V81H410.731V29.754H423.214L444.092 61.509V29.754H456.575V81ZM499.642 45.96C498.717 44.2567 497.379 42.967 495.627 42.091C493.923 41.1663 491.904 40.704 489.568 40.704C485.528 40.704 482.292 42.0423 479.859 44.719C477.425 47.347 476.209 50.8753 476.209 55.304C476.209 60.0247 477.474 63.7233 480.005 66.4C482.584 69.028 486.112 70.342 490.59 70.342C493.656 70.342 496.235 69.5633 498.328 68.006C500.469 66.4487 502.026 64.21 503 61.29H487.159V52.092H514.315V63.699C513.39 66.8137 511.808 69.7093 509.57 72.386C507.38 75.0627 504.581 77.2283 501.175 78.883C497.768 80.5377 493.923 81.365 489.641 81.365C484.579 81.365 480.053 80.27 476.063 78.08C472.121 75.8413 469.03 72.751 466.792 68.809C464.602 64.867 463.507 60.3653 463.507 55.304C463.507 50.2427 464.602 45.741 466.792 41.799C469.03 37.8083 472.121 34.718 476.063 32.528C480.005 30.2893 484.506 29.17 489.568 29.17C495.7 29.17 500.858 30.6543 505.044 33.623C509.278 36.5917 512.076 40.704 513.439 45.96H499.642Z" fill="black"/>
<path d="M555.898 29.754C561.3 29.754 566.021 30.8247 570.06 32.966C574.099 35.1073 577.214 38.1247 579.404 42.018C581.643 45.8627 582.762 50.3157 582.762 55.377C582.762 60.3897 581.643 64.8427 579.404 68.736C577.214 72.6293 574.075 75.6467 569.987 77.788C565.948 79.9293 561.251 81 555.898 81H536.699V29.754H555.898ZM555.095 70.196C559.816 70.196 563.49 68.9063 566.118 66.327C568.746 63.7477 570.06 60.0977 570.06 55.377C570.06 50.6563 568.746 46.982 566.118 44.354C563.49 41.726 559.816 40.412 555.095 40.412H549.182V70.196H555.095ZM602.221 29.754V81H589.738V29.754H602.221ZM645.285 45.96C644.361 44.2567 643.022 42.967 641.27 42.091C639.567 41.1663 637.547 40.704 635.211 40.704C631.172 40.704 627.936 42.0423 625.502 44.719C623.069 47.347 621.852 50.8753 621.852 55.304C621.852 60.0247 623.118 63.7233 625.648 66.4C628.228 69.028 631.756 70.342 636.233 70.342C639.299 70.342 641.879 69.5633 643.971 68.006C646.113 66.4487 647.67 64.21 648.643 61.29H632.802V52.092H659.958V63.699C659.034 66.8137 657.452 69.7093 655.213 72.386C653.023 75.0627 650.225 77.2283 646.818 78.883C643.412 80.5377 639.567 81.365 635.284 81.365C630.223 81.365 625.697 80.27 621.706 78.08C617.764 75.8413 614.674 72.751 612.435 68.809C610.245 64.867 609.15 60.3653 609.15 55.304C609.15 50.2427 610.245 45.741 612.435 41.799C614.674 37.8083 617.764 34.718 621.706 32.528C625.648 30.2893 630.15 29.17 635.211 29.17C641.343 29.17 646.502 30.6543 650.687 33.623C654.921 36.5917 657.72 40.704 659.082 45.96H645.285ZM679.356 29.754V81H666.873V29.754H679.356ZM725.267 29.754V39.755H711.689V81H699.206V39.755H685.628V29.754H725.267ZM763.433 71.948H744.307L741.241 81H728.174L746.716 29.754H761.17L779.712 81H766.499L763.433 71.948ZM760.221 62.312L753.87 43.551L747.592 62.312H760.221ZM797.838 71.364H814.19V81H785.355V29.754H797.838V71.364ZM833.497 55.304C833.497 50.2427 834.592 45.741 836.782 41.799C838.972 37.8083 842.014 34.718 845.907 32.528C849.849 30.2893 854.302 29.17 859.266 29.17C865.349 29.17 870.557 30.776 874.888 33.988C879.219 37.2 882.115 41.58 883.575 47.128H869.851C868.829 44.9867 867.369 43.3563 865.471 42.237C863.622 41.1177 861.505 40.558 859.12 40.558C855.275 40.558 852.161 41.8963 849.776 44.573C847.391 47.2497 846.199 50.8267 846.199 55.304C846.199 59.7813 847.391 63.3583 849.776 66.035C852.161 68.7117 855.275 70.05 859.12 70.05C861.505 70.05 863.622 69.4903 865.471 68.371C867.369 67.2517 868.829 65.6213 869.851 63.48H883.575C882.115 69.028 879.219 73.408 874.888 76.62C870.557 79.7833 865.349 81.365 859.266 81.365C854.302 81.365 849.849 80.27 845.907 78.08C842.014 75.8413 838.972 72.751 836.782 68.809C834.592 64.867 833.497 60.3653 833.497 55.304ZM903.702 39.755V50.121H920.419V59.757H903.702V70.999H922.609V81H891.219V29.754H922.609V39.755H903.702ZM956.848 81L946.19 61.655H943.197V81H930.714V29.754H951.665C955.704 29.754 959.135 30.4597 961.958 31.871C964.829 33.2823 966.97 35.229 968.382 37.711C969.793 40.1443 970.499 42.8697 970.499 45.887C970.499 49.2937 969.525 52.3353 967.579 55.012C965.681 57.6887 962.858 59.5867 959.111 60.706L970.937 81H956.848ZM943.197 52.822H950.935C953.222 52.822 954.925 52.2623 956.045 51.143C957.213 50.0237 957.797 48.442 957.797 46.398C957.797 44.4513 957.213 42.9183 956.045 41.799C954.925 40.6797 953.222 40.12 950.935 40.12H943.197V52.822ZM1015.2 29.754V39.755H1001.62V81H989.139V39.755H975.561V29.754H1015.2ZM1033.95 29.754V81H1021.46V29.754H1033.95ZM1076.35 29.754V39.755H1055.48V50.559H1071.1V60.268H1055.48V81H1042.99V29.754H1076.35ZM1095.4 29.754V81H1082.92V29.754H1095.4ZM1102.33 55.304C1102.33 50.2427 1103.42 45.741 1105.61 41.799C1107.8 37.8083 1110.84 34.718 1114.74 32.528C1118.68 30.2893 1123.13 29.17 1128.1 29.17C1134.18 29.17 1139.39 30.776 1143.72 33.988C1148.05 37.2 1150.95 41.58 1152.41 47.128H1138.68C1137.66 44.9867 1136.2 43.3563 1134.3 42.237C1132.45 41.1177 1130.34 40.558 1127.95 40.558C1124.11 40.558 1120.99 41.8963 1118.61 44.573C1116.22 47.2497 1115.03 50.8267 1115.03 55.304C1115.03 59.7813 1116.22 63.3583 1118.61 66.035C1120.99 68.7117 1124.11 70.05 1127.95 70.05C1130.34 70.05 1132.45 69.4903 1134.3 68.371C1136.2 67.2517 1137.66 65.6213 1138.68 63.48H1152.41C1150.95 69.028 1148.05 73.408 1143.72 76.62C1139.39 79.7833 1134.18 81.365 1128.1 81.365C1123.13 81.365 1118.68 80.27 1114.74 78.08C1110.84 75.8413 1107.8 72.751 1105.61 68.809C1103.42 64.867 1102.33 60.3653 1102.33 55.304ZM1191.95 71.948H1172.83L1169.76 81H1156.69L1175.23 29.754H1189.69L1208.23 81H1195.02L1191.95 71.948ZM1188.74 62.312L1182.39 43.551L1176.11 62.312H1188.74ZM1250.74 29.754V39.755H1237.16V81H1224.68V39.755H1211.1V29.754H1250.74ZM1269.49 39.755V50.121H1286.2V59.757H1269.49V70.999H1288.39V81H1257V29.754H1288.39V39.755H1269.49Z" fill="url(#paint0_linear_23_3480)"/>
<defs>
<linearGradient id="paint0_linear_23_3480" x1="646" y1="0" x2="646" y2="146.5" gradientUnits="userSpaceOnUse">
<stop stop-color="#05BFDB"/>
<stop offset="1" stop-color="#0A4D68"/>
</linearGradient>
</defs>
</svg>
