<svg width="77" height="582" viewBox="0 0 77 582" fill="none" xmlns="http://www.w3.org/2000/svg">
<ellipse cx="3.7258" cy="488.726" rx="3.7258" ry="3.7258" fill="#A6F3FF"/>
<ellipse cx="3.7258" cy="501.642" rx="3.7258" ry="3.7258" fill="#A6F3FF"/>
<ellipse cx="3.7258" cy="514.558" rx="3.7258" ry="3.7258" fill="#A6F3FF"/>
<ellipse cx="3.7258" cy="527.474" rx="3.7258" ry="3.7258" fill="#A6F3FF"/>
<ellipse cx="3.7258" cy="540.39" rx="3.7258" ry="3.7258" fill="#A6F3FF"/>
<ellipse cx="17.6353" cy="488.726" rx="3.7258" ry="3.7258" fill="#A6F3FF"/>
<ellipse cx="17.6353" cy="501.642" rx="3.7258" ry="3.7258" fill="#A6F3FF"/>
<ellipse cx="17.6353" cy="514.558" rx="3.7258" ry="3.7258" fill="#A6F3FF"/>
<ellipse cx="17.6353" cy="527.474" rx="3.7258" ry="3.7258" fill="#A6F3FF"/>
<ellipse cx="17.6353" cy="540.39" rx="3.7258" ry="3.7258" fill="#A6F3FF"/>
<ellipse cx="31.5451" cy="488.726" rx="3.7258" ry="3.7258" fill="#A6F3FF"/>
<ellipse cx="31.5451" cy="501.642" rx="3.7258" ry="3.7258" fill="#A6F3FF"/>
<ellipse cx="31.5451" cy="514.558" rx="3.7258" ry="3.7258" fill="#A6F3FF"/>
<ellipse cx="31.5451" cy="527.474" rx="3.7258" ry="3.7258" fill="#A6F3FF"/>
<ellipse cx="31.5451" cy="540.39" rx="3.7258" ry="3.7258" fill="#A6F3FF"/>
<ellipse cx="45.4547" cy="488.726" rx="3.7258" ry="3.7258" fill="#A6F3FF"/>
<ellipse cx="45.4547" cy="501.642" rx="3.7258" ry="3.7258" fill="#A6F3FF"/>
<ellipse cx="45.4547" cy="514.558" rx="3.7258" ry="3.7258" fill="#A6F3FF"/>
<ellipse cx="45.4547" cy="527.474" rx="3.7258" ry="3.7258" fill="#A6F3FF"/>
<ellipse cx="45.4547" cy="540.39" rx="3.7258" ry="3.7258" fill="#A6F3FF"/>
<ellipse cx="59.3645" cy="488.726" rx="3.7258" ry="3.7258" fill="#A6F3FF"/>
<ellipse cx="59.3645" cy="501.642" rx="3.7258" ry="3.7258" fill="#A6F3FF"/>
<ellipse cx="59.3645" cy="514.558" rx="3.7258" ry="3.7258" fill="#A6F3FF"/>
<ellipse cx="59.3645" cy="527.474" rx="3.7258" ry="3.7258" fill="#A6F3FF"/>
<ellipse cx="59.3645" cy="540.39" rx="3.7258" ry="3.7258" fill="#A6F3FF"/>
<ellipse cx="73.274" cy="488.726" rx="3.7258" ry="3.7258" fill="#A6F3FF"/>
<ellipse cx="73.274" cy="501.642" rx="3.7258" ry="3.7258" fill="#A6F3FF"/>
<ellipse cx="73.274" cy="514.558" rx="3.7258" ry="3.7258" fill="#A6F3FF"/>
<ellipse cx="73.274" cy="527.474" rx="3.7258" ry="3.7258" fill="#A6F3FF"/>
<ellipse cx="73.274" cy="540.39" rx="3.7258" ry="3.7258" fill="#A6F3FF"/>
<ellipse cx="3.7258" cy="540.726" rx="3.7258" ry="3.7258" fill="#A6F3FF"/>
<ellipse cx="3.7258" cy="553.642" rx="3.7258" ry="3.7258" fill="#A6F3FF"/>
<ellipse cx="3.7258" cy="566.558" rx="3.7258" ry="3.7258" fill="#A6F3FF"/>
<ellipse cx="3.7258" cy="579.474" rx="3.7258" ry="3.7258" fill="#A6F3FF"/>
<ellipse cx="17.6353" cy="540.726" rx="3.7258" ry="3.7258" fill="#A6F3FF"/>
<ellipse cx="17.6353" cy="553.642" rx="3.7258" ry="3.7258" fill="#A6F3FF"/>
<ellipse cx="17.6353" cy="566.558" rx="3.7258" ry="3.7258" fill="#A6F3FF"/>
<ellipse cx="17.6353" cy="579.474" rx="3.7258" ry="3.7258" fill="#A6F3FF"/>
<ellipse cx="31.5451" cy="540.726" rx="3.7258" ry="3.7258" fill="#A6F3FF"/>
<ellipse cx="31.5451" cy="553.642" rx="3.7258" ry="3.7258" fill="#A6F3FF"/>
<ellipse cx="31.5451" cy="566.558" rx="3.7258" ry="3.7258" fill="#A6F3FF"/>
<ellipse cx="31.5451" cy="579.474" rx="3.7258" ry="3.7258" fill="#A6F3FF"/>
<ellipse cx="45.4547" cy="540.726" rx="3.7258" ry="3.7258" fill="#A6F3FF"/>
<ellipse cx="45.4547" cy="553.642" rx="3.7258" ry="3.7258" fill="#A6F3FF"/>
<ellipse cx="45.4547" cy="566.558" rx="3.7258" ry="3.7258" fill="#A6F3FF"/>
<ellipse cx="45.4547" cy="579.474" rx="3.7258" ry="3.7258" fill="#A6F3FF"/>
<ellipse cx="59.3645" cy="540.726" rx="3.7258" ry="3.7258" fill="#A6F3FF"/>
<ellipse cx="59.3645" cy="553.642" rx="3.7258" ry="3.7258" fill="#A6F3FF"/>
<ellipse cx="59.3645" cy="566.558" rx="3.7258" ry="3.7258" fill="#A6F3FF"/>
<ellipse cx="59.3645" cy="579.474" rx="3.7258" ry="3.7258" fill="#A6F3FF"/>
<ellipse cx="73.274" cy="540.726" rx="3.7258" ry="3.7258" fill="#A6F3FF"/>
<ellipse cx="73.274" cy="553.642" rx="3.7258" ry="3.7258" fill="#A6F3FF"/>
<ellipse cx="73.274" cy="566.558" rx="3.7258" ry="3.7258" fill="#A6F3FF"/>
<ellipse cx="73.274" cy="579.474" rx="3.7258" ry="3.7258" fill="#A6F3FF"/>
<ellipse cx="3.7258" cy="384.726" rx="3.7258" ry="3.7258" fill="#A6F3FF"/>
<ellipse cx="3.7258" cy="397.642" rx="3.7258" ry="3.7258" fill="#A6F3FF"/>
<ellipse cx="3.7258" cy="410.558" rx="3.7258" ry="3.7258" fill="#A6F3FF"/>
<ellipse cx="3.7258" cy="423.474" rx="3.7258" ry="3.7258" fill="#A6F3FF"/>
<ellipse cx="3.7258" cy="436.39" rx="3.7258" ry="3.7258" fill="#A6F3FF"/>
<ellipse cx="17.6353" cy="384.726" rx="3.7258" ry="3.7258" fill="#A6F3FF"/>
<ellipse cx="17.6353" cy="397.642" rx="3.7258" ry="3.7258" fill="#A6F3FF"/>
<ellipse cx="17.6353" cy="410.558" rx="3.7258" ry="3.7258" fill="#A6F3FF"/>
<ellipse cx="17.6353" cy="423.474" rx="3.7258" ry="3.7258" fill="#A6F3FF"/>
<ellipse cx="17.6353" cy="436.39" rx="3.7258" ry="3.7258" fill="#A6F3FF"/>
<ellipse cx="31.5451" cy="384.726" rx="3.7258" ry="3.7258" fill="#A6F3FF"/>
<ellipse cx="31.5451" cy="397.642" rx="3.7258" ry="3.7258" fill="#A6F3FF"/>
<ellipse cx="31.5451" cy="410.558" rx="3.7258" ry="3.7258" fill="#A6F3FF"/>
<ellipse cx="31.5451" cy="423.474" rx="3.7258" ry="3.7258" fill="#A6F3FF"/>
<ellipse cx="31.5451" cy="436.39" rx="3.7258" ry="3.7258" fill="#A6F3FF"/>
<ellipse cx="45.4547" cy="384.726" rx="3.7258" ry="3.7258" fill="#A6F3FF"/>
<ellipse cx="45.4547" cy="397.642" rx="3.7258" ry="3.7258" fill="#A6F3FF"/>
<ellipse cx="45.4547" cy="410.558" rx="3.7258" ry="3.7258" fill="#A6F3FF"/>
<ellipse cx="45.4547" cy="423.474" rx="3.7258" ry="3.7258" fill="#A6F3FF"/>
<ellipse cx="45.4547" cy="436.39" rx="3.7258" ry="3.7258" fill="#A6F3FF"/>
<ellipse cx="59.3645" cy="384.726" rx="3.7258" ry="3.7258" fill="#A6F3FF"/>
<ellipse cx="59.3645" cy="397.642" rx="3.7258" ry="3.7258" fill="#A6F3FF"/>
<ellipse cx="59.3645" cy="410.558" rx="3.7258" ry="3.7258" fill="#A6F3FF"/>
<ellipse cx="59.3645" cy="423.474" rx="3.7258" ry="3.7258" fill="#A6F3FF"/>
<ellipse cx="59.3645" cy="436.39" rx="3.7258" ry="3.7258" fill="#A6F3FF"/>
<ellipse cx="73.274" cy="384.726" rx="3.7258" ry="3.7258" fill="#A6F3FF"/>
<ellipse cx="73.274" cy="397.642" rx="3.7258" ry="3.7258" fill="#A6F3FF"/>
<ellipse cx="73.274" cy="410.558" rx="3.7258" ry="3.7258" fill="#A6F3FF"/>
<ellipse cx="73.274" cy="423.474" rx="3.7258" ry="3.7258" fill="#A6F3FF"/>
<ellipse cx="73.274" cy="436.39" rx="3.7258" ry="3.7258" fill="#A6F3FF"/>
<ellipse cx="3.7258" cy="436.726" rx="3.7258" ry="3.7258" fill="#A6F3FF"/>
<ellipse cx="3.7258" cy="449.642" rx="3.7258" ry="3.7258" fill="#A6F3FF"/>
<ellipse cx="3.7258" cy="462.558" rx="3.7258" ry="3.7258" fill="#A6F3FF"/>
<ellipse cx="3.7258" cy="475.474" rx="3.7258" ry="3.7258" fill="#A6F3FF"/>
<ellipse cx="3.7258" cy="488.39" rx="3.7258" ry="3.7258" fill="#A6F3FF"/>
<ellipse cx="17.6353" cy="436.726" rx="3.7258" ry="3.7258" fill="#A6F3FF"/>
<ellipse cx="17.6353" cy="449.642" rx="3.7258" ry="3.7258" fill="#A6F3FF"/>
<ellipse cx="17.6353" cy="462.558" rx="3.7258" ry="3.7258" fill="#A6F3FF"/>
<ellipse cx="17.6353" cy="475.474" rx="3.7258" ry="3.7258" fill="#A6F3FF"/>
<ellipse cx="17.6353" cy="488.39" rx="3.7258" ry="3.7258" fill="#A6F3FF"/>
<ellipse cx="31.5451" cy="436.726" rx="3.7258" ry="3.7258" fill="#A6F3FF"/>
<ellipse cx="31.5451" cy="449.642" rx="3.7258" ry="3.7258" fill="#A6F3FF"/>
<ellipse cx="31.5451" cy="462.558" rx="3.7258" ry="3.7258" fill="#A6F3FF"/>
<ellipse cx="31.5451" cy="475.474" rx="3.7258" ry="3.7258" fill="#A6F3FF"/>
<ellipse cx="31.5451" cy="488.39" rx="3.7258" ry="3.7258" fill="#A6F3FF"/>
<ellipse cx="45.4547" cy="436.726" rx="3.7258" ry="3.7258" fill="#A6F3FF"/>
<ellipse cx="45.4547" cy="449.642" rx="3.7258" ry="3.7258" fill="#A6F3FF"/>
<ellipse cx="45.4547" cy="462.558" rx="3.7258" ry="3.7258" fill="#A6F3FF"/>
<ellipse cx="45.4547" cy="475.474" rx="3.7258" ry="3.7258" fill="#A6F3FF"/>
<ellipse cx="45.4547" cy="488.39" rx="3.7258" ry="3.7258" fill="#A6F3FF"/>
<ellipse cx="59.3645" cy="436.726" rx="3.7258" ry="3.7258" fill="#A6F3FF"/>
<ellipse cx="59.3645" cy="449.642" rx="3.7258" ry="3.7258" fill="#A6F3FF"/>
<ellipse cx="59.3645" cy="462.558" rx="3.7258" ry="3.7258" fill="#A6F3FF"/>
<ellipse cx="59.3645" cy="475.474" rx="3.7258" ry="3.7258" fill="#A6F3FF"/>
<ellipse cx="59.3645" cy="488.39" rx="3.7258" ry="3.7258" fill="#A6F3FF"/>
<ellipse cx="73.274" cy="436.726" rx="3.7258" ry="3.7258" fill="#A6F3FF"/>
<ellipse cx="73.274" cy="449.642" rx="3.7258" ry="3.7258" fill="#A6F3FF"/>
<ellipse cx="73.274" cy="462.558" rx="3.7258" ry="3.7258" fill="#A6F3FF"/>
<ellipse cx="73.274" cy="475.474" rx="3.7258" ry="3.7258" fill="#A6F3FF"/>
<ellipse cx="73.274" cy="488.39" rx="3.7258" ry="3.7258" fill="#A6F3FF"/>
<ellipse cx="3.7258" cy="280.726" rx="3.7258" ry="3.7258" fill="#A6F3FF"/>
<ellipse cx="3.7258" cy="293.642" rx="3.7258" ry="3.7258" fill="#A6F3FF"/>
<ellipse cx="3.7258" cy="306.558" rx="3.7258" ry="3.7258" fill="#A6F3FF"/>
<ellipse cx="3.7258" cy="319.474" rx="3.7258" ry="3.7258" fill="#A6F3FF"/>
<ellipse cx="3.7258" cy="332.39" rx="3.7258" ry="3.7258" fill="#A6F3FF"/>
<ellipse cx="17.6353" cy="280.726" rx="3.7258" ry="3.7258" fill="#A6F3FF"/>
<ellipse cx="17.6353" cy="293.642" rx="3.7258" ry="3.7258" fill="#A6F3FF"/>
<ellipse cx="17.6353" cy="306.558" rx="3.7258" ry="3.7258" fill="#A6F3FF"/>
<ellipse cx="17.6353" cy="319.474" rx="3.7258" ry="3.7258" fill="#A6F3FF"/>
<ellipse cx="17.6353" cy="332.39" rx="3.7258" ry="3.7258" fill="#A6F3FF"/>
<ellipse cx="31.5451" cy="280.726" rx="3.7258" ry="3.7258" fill="#A6F3FF"/>
<ellipse cx="31.5451" cy="293.642" rx="3.7258" ry="3.7258" fill="#A6F3FF"/>
<ellipse cx="31.5451" cy="306.558" rx="3.7258" ry="3.7258" fill="#A6F3FF"/>
<ellipse cx="31.5451" cy="319.474" rx="3.7258" ry="3.7258" fill="#A6F3FF"/>
<ellipse cx="31.5451" cy="332.39" rx="3.7258" ry="3.7258" fill="#A6F3FF"/>
<ellipse cx="45.4547" cy="280.726" rx="3.7258" ry="3.7258" fill="#A6F3FF"/>
<ellipse cx="45.4547" cy="293.642" rx="3.7258" ry="3.7258" fill="#A6F3FF"/>
<ellipse cx="45.4547" cy="306.558" rx="3.7258" ry="3.7258" fill="#A6F3FF"/>
<ellipse cx="45.4547" cy="319.474" rx="3.7258" ry="3.7258" fill="#A6F3FF"/>
<ellipse cx="45.4547" cy="332.39" rx="3.7258" ry="3.7258" fill="#A6F3FF"/>
<ellipse cx="59.3645" cy="280.726" rx="3.7258" ry="3.7258" fill="#A6F3FF"/>
<ellipse cx="59.3645" cy="293.642" rx="3.7258" ry="3.7258" fill="#A6F3FF"/>
<ellipse cx="59.3645" cy="306.558" rx="3.7258" ry="3.7258" fill="#A6F3FF"/>
<ellipse cx="59.3645" cy="319.474" rx="3.7258" ry="3.7258" fill="#A6F3FF"/>
<ellipse cx="59.3645" cy="332.39" rx="3.7258" ry="3.7258" fill="#A6F3FF"/>
<ellipse cx="73.274" cy="280.726" rx="3.7258" ry="3.7258" fill="#A6F3FF"/>
<ellipse cx="73.274" cy="293.642" rx="3.7258" ry="3.7258" fill="#A6F3FF"/>
<ellipse cx="73.274" cy="306.558" rx="3.7258" ry="3.7258" fill="#A6F3FF"/>
<ellipse cx="73.274" cy="319.474" rx="3.7258" ry="3.7258" fill="#A6F3FF"/>
<ellipse cx="73.274" cy="332.39" rx="3.7258" ry="3.7258" fill="#A6F3FF"/>
<ellipse cx="3.7258" cy="332.726" rx="3.7258" ry="3.7258" fill="#A6F3FF"/>
<ellipse cx="3.7258" cy="345.642" rx="3.7258" ry="3.7258" fill="#A6F3FF"/>
<ellipse cx="3.7258" cy="358.558" rx="3.7258" ry="3.7258" fill="#A6F3FF"/>
<ellipse cx="3.7258" cy="371.474" rx="3.7258" ry="3.7258" fill="#A6F3FF"/>
<ellipse cx="3.7258" cy="384.39" rx="3.7258" ry="3.7258" fill="#A6F3FF"/>
<ellipse cx="17.6353" cy="332.726" rx="3.7258" ry="3.7258" fill="#A6F3FF"/>
<ellipse cx="17.6353" cy="345.642" rx="3.7258" ry="3.7258" fill="#A6F3FF"/>
<ellipse cx="17.6353" cy="358.558" rx="3.7258" ry="3.7258" fill="#A6F3FF"/>
<ellipse cx="17.6353" cy="371.474" rx="3.7258" ry="3.7258" fill="#A6F3FF"/>
<ellipse cx="17.6353" cy="384.39" rx="3.7258" ry="3.7258" fill="#A6F3FF"/>
<ellipse cx="31.5451" cy="332.726" rx="3.7258" ry="3.7258" fill="#A6F3FF"/>
<ellipse cx="31.5451" cy="345.642" rx="3.7258" ry="3.7258" fill="#A6F3FF"/>
<ellipse cx="31.5451" cy="358.558" rx="3.7258" ry="3.7258" fill="#A6F3FF"/>
<ellipse cx="31.5451" cy="371.474" rx="3.7258" ry="3.7258" fill="#A6F3FF"/>
<ellipse cx="31.5451" cy="384.39" rx="3.7258" ry="3.7258" fill="#A6F3FF"/>
<ellipse cx="45.4547" cy="332.726" rx="3.7258" ry="3.7258" fill="#A6F3FF"/>
<ellipse cx="45.4547" cy="345.642" rx="3.7258" ry="3.7258" fill="#A6F3FF"/>
<ellipse cx="45.4547" cy="358.558" rx="3.7258" ry="3.7258" fill="#A6F3FF"/>
<ellipse cx="45.4547" cy="371.474" rx="3.7258" ry="3.7258" fill="#A6F3FF"/>
<ellipse cx="45.4547" cy="384.39" rx="3.7258" ry="3.7258" fill="#A6F3FF"/>
<ellipse cx="59.3645" cy="332.726" rx="3.7258" ry="3.7258" fill="#A6F3FF"/>
<ellipse cx="59.3645" cy="345.642" rx="3.7258" ry="3.7258" fill="#A6F3FF"/>
<ellipse cx="59.3645" cy="358.558" rx="3.7258" ry="3.7258" fill="#A6F3FF"/>
<ellipse cx="59.3645" cy="371.474" rx="3.7258" ry="3.7258" fill="#A6F3FF"/>
<ellipse cx="59.3645" cy="384.39" rx="3.7258" ry="3.7258" fill="#A6F3FF"/>
<ellipse cx="73.274" cy="332.726" rx="3.7258" ry="3.7258" fill="#A6F3FF"/>
<ellipse cx="73.274" cy="345.642" rx="3.7258" ry="3.7258" fill="#A6F3FF"/>
<ellipse cx="73.274" cy="358.558" rx="3.7258" ry="3.7258" fill="#A6F3FF"/>
<ellipse cx="73.274" cy="371.474" rx="3.7258" ry="3.7258" fill="#A6F3FF"/>
<ellipse cx="73.274" cy="384.39" rx="3.7258" ry="3.7258" fill="#A6F3FF"/>
<ellipse cx="3.7258" cy="176.726" rx="3.7258" ry="3.7258" fill="#A6F3FF"/>
<ellipse cx="3.7258" cy="189.642" rx="3.7258" ry="3.7258" fill="#A6F3FF"/>
<ellipse cx="3.7258" cy="202.558" rx="3.7258" ry="3.7258" fill="#A6F3FF"/>
<ellipse cx="3.7258" cy="215.474" rx="3.7258" ry="3.7258" fill="#A6F3FF"/>
<ellipse cx="3.7258" cy="228.39" rx="3.7258" ry="3.7258" fill="#A6F3FF"/>
<ellipse cx="17.6353" cy="176.726" rx="3.7258" ry="3.7258" fill="#A6F3FF"/>
<ellipse cx="17.6353" cy="189.642" rx="3.7258" ry="3.7258" fill="#A6F3FF"/>
<ellipse cx="17.6353" cy="202.558" rx="3.7258" ry="3.7258" fill="#A6F3FF"/>
<ellipse cx="17.6353" cy="215.474" rx="3.7258" ry="3.7258" fill="#A6F3FF"/>
<ellipse cx="17.6353" cy="228.39" rx="3.7258" ry="3.7258" fill="#A6F3FF"/>
<ellipse cx="31.5451" cy="176.726" rx="3.7258" ry="3.7258" fill="#A6F3FF"/>
<ellipse cx="31.5451" cy="189.642" rx="3.7258" ry="3.7258" fill="#A6F3FF"/>
<ellipse cx="31.5451" cy="202.558" rx="3.7258" ry="3.7258" fill="#A6F3FF"/>
<ellipse cx="31.5451" cy="215.474" rx="3.7258" ry="3.7258" fill="#A6F3FF"/>
<ellipse cx="31.5451" cy="228.39" rx="3.7258" ry="3.7258" fill="#A6F3FF"/>
<ellipse cx="45.4547" cy="176.726" rx="3.7258" ry="3.7258" fill="#A6F3FF"/>
<ellipse cx="45.4547" cy="189.642" rx="3.7258" ry="3.7258" fill="#A6F3FF"/>
<ellipse cx="45.4547" cy="202.558" rx="3.7258" ry="3.7258" fill="#A6F3FF"/>
<ellipse cx="45.4547" cy="215.474" rx="3.7258" ry="3.7258" fill="#A6F3FF"/>
<ellipse cx="45.4547" cy="228.39" rx="3.7258" ry="3.7258" fill="#A6F3FF"/>
<ellipse cx="59.3645" cy="176.726" rx="3.7258" ry="3.7258" fill="#A6F3FF"/>
<ellipse cx="59.3645" cy="189.642" rx="3.7258" ry="3.7258" fill="#A6F3FF"/>
<ellipse cx="59.3645" cy="202.558" rx="3.7258" ry="3.7258" fill="#A6F3FF"/>
<ellipse cx="59.3645" cy="215.474" rx="3.7258" ry="3.7258" fill="#A6F3FF"/>
<ellipse cx="59.3645" cy="228.39" rx="3.7258" ry="3.7258" fill="#A6F3FF"/>
<ellipse cx="73.274" cy="176.726" rx="3.7258" ry="3.7258" fill="#A6F3FF"/>
<ellipse cx="73.274" cy="189.642" rx="3.7258" ry="3.7258" fill="#A6F3FF"/>
<ellipse cx="73.274" cy="202.558" rx="3.7258" ry="3.7258" fill="#A6F3FF"/>
<ellipse cx="73.274" cy="215.474" rx="3.7258" ry="3.7258" fill="#A6F3FF"/>
<ellipse cx="73.274" cy="228.39" rx="3.7258" ry="3.7258" fill="#A6F3FF"/>
<ellipse cx="3.7258" cy="228.726" rx="3.7258" ry="3.7258" fill="#A6F3FF"/>
<ellipse cx="3.7258" cy="241.642" rx="3.7258" ry="3.7258" fill="#A6F3FF"/>
<ellipse cx="3.7258" cy="254.558" rx="3.7258" ry="3.7258" fill="#A6F3FF"/>
<ellipse cx="3.7258" cy="267.474" rx="3.7258" ry="3.7258" fill="#A6F3FF"/>
<ellipse cx="3.7258" cy="280.39" rx="3.7258" ry="3.7258" fill="#A6F3FF"/>
<ellipse cx="17.6353" cy="228.726" rx="3.7258" ry="3.7258" fill="#A6F3FF"/>
<ellipse cx="17.6353" cy="241.642" rx="3.7258" ry="3.7258" fill="#A6F3FF"/>
<ellipse cx="17.6353" cy="254.558" rx="3.7258" ry="3.7258" fill="#A6F3FF"/>
<ellipse cx="17.6353" cy="267.474" rx="3.7258" ry="3.7258" fill="#A6F3FF"/>
<ellipse cx="17.6353" cy="280.39" rx="3.7258" ry="3.7258" fill="#A6F3FF"/>
<ellipse cx="31.5451" cy="228.726" rx="3.7258" ry="3.7258" fill="#A6F3FF"/>
<ellipse cx="31.5451" cy="241.642" rx="3.7258" ry="3.7258" fill="#A6F3FF"/>
<ellipse cx="31.5451" cy="254.558" rx="3.7258" ry="3.7258" fill="#A6F3FF"/>
<ellipse cx="31.5451" cy="267.474" rx="3.7258" ry="3.7258" fill="#A6F3FF"/>
<ellipse cx="31.5451" cy="280.39" rx="3.7258" ry="3.7258" fill="#A6F3FF"/>
<ellipse cx="45.4547" cy="228.726" rx="3.7258" ry="3.7258" fill="#A6F3FF"/>
<ellipse cx="45.4547" cy="241.642" rx="3.7258" ry="3.7258" fill="#A6F3FF"/>
<ellipse cx="45.4547" cy="254.558" rx="3.7258" ry="3.7258" fill="#A6F3FF"/>
<ellipse cx="45.4547" cy="267.474" rx="3.7258" ry="3.7258" fill="#A6F3FF"/>
<ellipse cx="45.4547" cy="280.39" rx="3.7258" ry="3.7258" fill="#A6F3FF"/>
<ellipse cx="59.3645" cy="228.726" rx="3.7258" ry="3.7258" fill="#A6F3FF"/>
<ellipse cx="59.3645" cy="241.642" rx="3.7258" ry="3.7258" fill="#A6F3FF"/>
<ellipse cx="59.3645" cy="254.558" rx="3.7258" ry="3.7258" fill="#A6F3FF"/>
<ellipse cx="59.3645" cy="267.474" rx="3.7258" ry="3.7258" fill="#A6F3FF"/>
<ellipse cx="59.3645" cy="280.39" rx="3.7258" ry="3.7258" fill="#A6F3FF"/>
<ellipse cx="73.274" cy="228.726" rx="3.7258" ry="3.7258" fill="#A6F3FF"/>
<ellipse cx="73.274" cy="241.642" rx="3.7258" ry="3.7258" fill="#A6F3FF"/>
<ellipse cx="73.274" cy="254.558" rx="3.7258" ry="3.7258" fill="#A6F3FF"/>
<ellipse cx="73.274" cy="267.474" rx="3.7258" ry="3.7258" fill="#A6F3FF"/>
<ellipse cx="73.274" cy="280.39" rx="3.7258" ry="3.7258" fill="#A6F3FF"/>
<ellipse cx="3.7258" cy="72.7258" rx="3.7258" ry="3.7258" fill="#A6F3FF"/>
<ellipse cx="3.7258" cy="85.6421" rx="3.7258" ry="3.7258" fill="#A6F3FF"/>
<ellipse cx="3.7258" cy="98.5581" rx="3.7258" ry="3.7258" fill="#A6F3FF"/>
<ellipse cx="3.7258" cy="111.474" rx="3.7258" ry="3.7258" fill="#A6F3FF"/>
<ellipse cx="3.7258" cy="124.39" rx="3.7258" ry="3.7258" fill="#A6F3FF"/>
<ellipse cx="17.6353" cy="72.7258" rx="3.7258" ry="3.7258" fill="#A6F3FF"/>
<ellipse cx="17.6353" cy="85.6421" rx="3.7258" ry="3.7258" fill="#A6F3FF"/>
<ellipse cx="17.6353" cy="98.5581" rx="3.7258" ry="3.7258" fill="#A6F3FF"/>
<ellipse cx="17.6353" cy="111.474" rx="3.7258" ry="3.7258" fill="#A6F3FF"/>
<ellipse cx="17.6353" cy="124.39" rx="3.7258" ry="3.7258" fill="#A6F3FF"/>
<ellipse cx="31.5451" cy="72.7258" rx="3.7258" ry="3.7258" fill="#A6F3FF"/>
<ellipse cx="31.5451" cy="85.6421" rx="3.7258" ry="3.7258" fill="#A6F3FF"/>
<ellipse cx="31.5451" cy="98.5581" rx="3.7258" ry="3.7258" fill="#A6F3FF"/>
<ellipse cx="31.5451" cy="111.474" rx="3.7258" ry="3.7258" fill="#A6F3FF"/>
<ellipse cx="31.5451" cy="124.39" rx="3.7258" ry="3.7258" fill="#A6F3FF"/>
<ellipse cx="45.4547" cy="72.7258" rx="3.7258" ry="3.7258" fill="#A6F3FF"/>
<ellipse cx="45.4547" cy="85.6421" rx="3.7258" ry="3.7258" fill="#A6F3FF"/>
<ellipse cx="45.4547" cy="98.5581" rx="3.7258" ry="3.7258" fill="#A6F3FF"/>
<ellipse cx="45.4547" cy="111.474" rx="3.7258" ry="3.7258" fill="#A6F3FF"/>
<ellipse cx="45.4547" cy="124.39" rx="3.7258" ry="3.7258" fill="#A6F3FF"/>
<ellipse cx="59.3645" cy="72.7258" rx="3.7258" ry="3.7258" fill="#A6F3FF"/>
<ellipse cx="59.3645" cy="85.6421" rx="3.7258" ry="3.7258" fill="#A6F3FF"/>
<ellipse cx="59.3645" cy="98.5581" rx="3.7258" ry="3.7258" fill="#A6F3FF"/>
<ellipse cx="59.3645" cy="111.474" rx="3.7258" ry="3.7258" fill="#A6F3FF"/>
<ellipse cx="59.3645" cy="124.39" rx="3.7258" ry="3.7258" fill="#A6F3FF"/>
<ellipse cx="73.274" cy="72.7258" rx="3.7258" ry="3.7258" fill="#A6F3FF"/>
<ellipse cx="73.274" cy="85.6421" rx="3.7258" ry="3.7258" fill="#A6F3FF"/>
<ellipse cx="73.274" cy="98.5581" rx="3.7258" ry="3.7258" fill="#A6F3FF"/>
<ellipse cx="73.274" cy="111.474" rx="3.7258" ry="3.7258" fill="#A6F3FF"/>
<ellipse cx="73.274" cy="124.39" rx="3.7258" ry="3.7258" fill="#A6F3FF"/>
<ellipse cx="3.7258" cy="124.726" rx="3.7258" ry="3.7258" fill="#A6F3FF"/>
<ellipse cx="3.7258" cy="137.642" rx="3.7258" ry="3.7258" fill="#A6F3FF"/>
<ellipse cx="3.7258" cy="150.558" rx="3.7258" ry="3.7258" fill="#A6F3FF"/>
<ellipse cx="3.7258" cy="163.474" rx="3.7258" ry="3.7258" fill="#A6F3FF"/>
<ellipse cx="3.7258" cy="176.39" rx="3.7258" ry="3.7258" fill="#A6F3FF"/>
<ellipse cx="17.6353" cy="124.726" rx="3.7258" ry="3.7258" fill="#A6F3FF"/>
<ellipse cx="17.6353" cy="137.642" rx="3.7258" ry="3.7258" fill="#A6F3FF"/>
<ellipse cx="17.6353" cy="150.558" rx="3.7258" ry="3.7258" fill="#A6F3FF"/>
<ellipse cx="17.6353" cy="163.474" rx="3.7258" ry="3.7258" fill="#A6F3FF"/>
<ellipse cx="17.6353" cy="176.39" rx="3.7258" ry="3.7258" fill="#A6F3FF"/>
<ellipse cx="31.5451" cy="124.726" rx="3.7258" ry="3.7258" fill="#A6F3FF"/>
<ellipse cx="31.5451" cy="137.642" rx="3.7258" ry="3.7258" fill="#A6F3FF"/>
<ellipse cx="31.5451" cy="150.558" rx="3.7258" ry="3.7258" fill="#A6F3FF"/>
<ellipse cx="31.5451" cy="163.474" rx="3.7258" ry="3.7258" fill="#A6F3FF"/>
<ellipse cx="31.5451" cy="176.39" rx="3.7258" ry="3.7258" fill="#A6F3FF"/>
<ellipse cx="45.4547" cy="124.726" rx="3.7258" ry="3.7258" fill="#A6F3FF"/>
<ellipse cx="45.4547" cy="137.642" rx="3.7258" ry="3.7258" fill="#A6F3FF"/>
<ellipse cx="45.4547" cy="150.558" rx="3.7258" ry="3.7258" fill="#A6F3FF"/>
<ellipse cx="45.4547" cy="163.474" rx="3.7258" ry="3.7258" fill="#A6F3FF"/>
<ellipse cx="45.4547" cy="176.39" rx="3.7258" ry="3.7258" fill="#A6F3FF"/>
<ellipse cx="59.3645" cy="124.726" rx="3.7258" ry="3.7258" fill="#A6F3FF"/>
<ellipse cx="59.3645" cy="137.642" rx="3.7258" ry="3.7258" fill="#A6F3FF"/>
<ellipse cx="59.3645" cy="150.558" rx="3.7258" ry="3.7258" fill="#A6F3FF"/>
<ellipse cx="59.3645" cy="163.474" rx="3.7258" ry="3.7258" fill="#A6F3FF"/>
<ellipse cx="59.3645" cy="176.39" rx="3.7258" ry="3.7258" fill="#A6F3FF"/>
<ellipse cx="73.274" cy="124.726" rx="3.7258" ry="3.7258" fill="#A6F3FF"/>
<ellipse cx="73.274" cy="137.642" rx="3.7258" ry="3.7258" fill="#A6F3FF"/>
<ellipse cx="73.274" cy="150.558" rx="3.7258" ry="3.7258" fill="#A6F3FF"/>
<ellipse cx="73.274" cy="163.474" rx="3.7258" ry="3.7258" fill="#A6F3FF"/>
<ellipse cx="73.274" cy="176.39" rx="3.7258" ry="3.7258" fill="#A6F3FF"/>
<ellipse cx="3.7258" cy="7.47434" rx="3.7258" ry="3.7258" fill="#A6F3FF"/>
<ellipse cx="3.7258" cy="20.3904" rx="3.7258" ry="3.7258" fill="#A6F3FF"/>
<ellipse cx="17.6353" cy="7.47434" rx="3.7258" ry="3.7258" fill="#A6F3FF"/>
<ellipse cx="17.6353" cy="20.3904" rx="3.7258" ry="3.7258" fill="#A6F3FF"/>
<ellipse cx="31.5451" cy="7.47434" rx="3.7258" ry="3.7258" fill="#A6F3FF"/>
<ellipse cx="31.5451" cy="20.3904" rx="3.7258" ry="3.7258" fill="#A6F3FF"/>
<ellipse cx="45.4547" cy="7.47434" rx="3.7258" ry="3.7258" fill="#A6F3FF"/>
<ellipse cx="45.4547" cy="20.3904" rx="3.7258" ry="3.7258" fill="#A6F3FF"/>
<ellipse cx="59.3645" cy="7.47434" rx="3.7258" ry="3.7258" fill="#A6F3FF"/>
<ellipse cx="59.3645" cy="20.3904" rx="3.7258" ry="3.7258" fill="#A6F3FF"/>
<ellipse cx="73.274" cy="7.47434" rx="3.7258" ry="3.7258" fill="#A6F3FF"/>
<ellipse cx="73.274" cy="20.3904" rx="3.7258" ry="3.7258" fill="#A6F3FF"/>
<ellipse cx="3.7258" cy="20.7258" rx="3.7258" ry="3.7258" fill="#A6F3FF"/>
<ellipse cx="3.7258" cy="33.6421" rx="3.7258" ry="3.7258" fill="#A6F3FF"/>
<ellipse cx="3.7258" cy="46.5581" rx="3.7258" ry="3.7258" fill="#A6F3FF"/>
<ellipse cx="3.7258" cy="59.4743" rx="3.7258" ry="3.7258" fill="#A6F3FF"/>
<ellipse cx="3.7258" cy="72.3904" rx="3.7258" ry="3.7258" fill="#A6F3FF"/>
<ellipse cx="17.6353" cy="20.7258" rx="3.7258" ry="3.7258" fill="#A6F3FF"/>
<ellipse cx="17.6353" cy="33.6421" rx="3.7258" ry="3.7258" fill="#A6F3FF"/>
<ellipse cx="17.6353" cy="46.5581" rx="3.7258" ry="3.7258" fill="#A6F3FF"/>
<ellipse cx="17.6353" cy="59.4743" rx="3.7258" ry="3.7258" fill="#A6F3FF"/>
<ellipse cx="17.6353" cy="72.3904" rx="3.7258" ry="3.7258" fill="#A6F3FF"/>
<ellipse cx="31.5451" cy="20.7258" rx="3.7258" ry="3.7258" fill="#A6F3FF"/>
<ellipse cx="31.5451" cy="33.6421" rx="3.7258" ry="3.7258" fill="#A6F3FF"/>
<ellipse cx="31.5451" cy="46.5581" rx="3.7258" ry="3.7258" fill="#A6F3FF"/>
<ellipse cx="31.5451" cy="59.4743" rx="3.7258" ry="3.7258" fill="#A6F3FF"/>
<ellipse cx="31.5451" cy="72.3904" rx="3.7258" ry="3.7258" fill="#A6F3FF"/>
<ellipse cx="45.4547" cy="20.7258" rx="3.7258" ry="3.7258" fill="#A6F3FF"/>
<ellipse cx="45.4547" cy="33.6421" rx="3.7258" ry="3.7258" fill="#A6F3FF"/>
<ellipse cx="45.4547" cy="46.5581" rx="3.7258" ry="3.7258" fill="#A6F3FF"/>
<ellipse cx="45.4547" cy="59.4743" rx="3.7258" ry="3.7258" fill="#A6F3FF"/>
<ellipse cx="45.4547" cy="72.3904" rx="3.7258" ry="3.7258" fill="#A6F3FF"/>
<ellipse cx="59.3645" cy="20.7258" rx="3.7258" ry="3.7258" fill="#A6F3FF"/>
<ellipse cx="59.3645" cy="33.6421" rx="3.7258" ry="3.7258" fill="#A6F3FF"/>
<ellipse cx="59.3645" cy="46.5581" rx="3.7258" ry="3.7258" fill="#A6F3FF"/>
<ellipse cx="59.3645" cy="59.4743" rx="3.7258" ry="3.7258" fill="#A6F3FF"/>
<ellipse cx="59.3645" cy="72.3904" rx="3.7258" ry="3.7258" fill="#A6F3FF"/>
<ellipse cx="73.274" cy="20.7258" rx="3.7258" ry="3.7258" fill="#A6F3FF"/>
<ellipse cx="73.274" cy="33.6421" rx="3.7258" ry="3.7258" fill="#A6F3FF"/>
<ellipse cx="73.274" cy="46.5581" rx="3.7258" ry="3.7258" fill="#A6F3FF"/>
<ellipse cx="73.274" cy="59.4743" rx="3.7258" ry="3.7258" fill="#A6F3FF"/>
<ellipse cx="73.274" cy="72.3904" rx="3.7258" ry="3.7258" fill="#A6F3FF"/>
</svg>
