<svg width="13" height="187" viewBox="0 0 13 187" fill="none" xmlns="http://www.w3.org/2000/svg">
<path d="M12.112 182.04C12.112 182.819 11.9787 183.523 11.712 184.152C11.4453 184.771 11.0613 185.261 10.56 185.624C10.0587 185.987 9.46667 186.173 8.784 186.184V183.784C9.24267 183.752 9.60533 183.592 9.872 183.304C10.1387 183.005 10.272 182.6 10.272 182.088C10.272 181.565 10.1493 181.155 9.904 180.856C9.648 180.557 9.31733 180.408 8.912 180.408C8.58133 180.408 8.30933 180.509 8.096 180.712C7.88267 180.915 7.71733 181.171 7.6 181.48C7.472 181.779 7.33333 182.195 7.184 182.728C6.97067 183.453 6.76267 184.045 6.56 184.504C6.34667 184.952 6.032 185.341 5.616 185.672C5.18933 185.992 4.624 186.152 3.92 186.152C3.25867 186.152 2.68267 185.987 2.192 185.656C1.70133 185.325 1.328 184.861 1.072 184.264C0.805333 183.667 0.672 182.984 0.672 182.216C0.672 181.064 0.954666 180.131 1.52 179.416C2.07467 178.691 2.85333 178.291 3.856 178.216V180.68C3.472 180.701 3.15733 180.867 2.912 181.176C2.656 181.475 2.528 181.875 2.528 182.376C2.528 182.813 2.64 183.165 2.864 183.432C3.088 183.688 3.41333 183.816 3.84 183.816C4.13867 183.816 4.38933 183.72 4.592 183.528C4.784 183.325 4.944 183.08 5.072 182.792C5.18933 182.493 5.328 182.077 5.488 181.544C5.70133 180.819 5.91467 180.227 6.128 179.768C6.34133 179.309 6.66133 178.915 7.088 178.584C7.51467 178.253 8.07467 178.088 8.768 178.088C9.36533 178.088 9.92 178.243 10.432 178.552C10.944 178.861 11.3547 179.315 11.664 179.912C11.9627 180.509 12.112 181.219 12.112 182.04ZM12.112 170.962C12.112 172.007 11.8667 172.967 11.376 173.842C10.8853 174.717 10.208 175.41 9.344 175.922C8.46933 176.434 7.48267 176.69 6.384 176.69C5.296 176.69 4.32 176.434 3.456 175.922C2.58133 175.41 1.89867 174.717 1.408 173.842C0.917333 172.967 0.672 172.007 0.672 170.962C0.672 169.906 0.917333 168.946 1.408 168.082C1.89867 167.207 2.58133 166.519 3.456 166.018C4.32 165.506 5.296 165.25 6.384 165.25C7.48267 165.25 8.46933 165.506 9.344 166.018C10.208 166.519 10.8853 167.207 11.376 168.082C11.8667 168.957 12.112 169.917 12.112 170.962ZM10.112 170.962C10.112 170.29 9.96267 169.698 9.664 169.186C9.35467 168.674 8.91733 168.274 8.352 167.986C7.78667 167.698 7.13067 167.554 6.384 167.554C5.63733 167.554 4.98667 167.698 4.432 167.986C3.86667 168.274 3.43467 168.674 3.136 169.186C2.83733 169.698 2.688 170.29 2.688 170.962C2.688 171.634 2.83733 172.231 3.136 172.754C3.43467 173.266 3.86667 173.666 4.432 173.954C4.98667 174.242 5.63733 174.386 6.384 174.386C7.13067 174.386 7.78667 174.242 8.352 173.954C8.91733 173.666 9.35467 173.266 9.664 172.754C9.96267 172.231 10.112 171.634 10.112 170.962ZM6.4 164.127C5.30133 164.127 4.32 163.882 3.456 163.391C2.58133 162.89 1.904 162.213 1.424 161.359C0.933333 160.495 0.688 159.53 0.688 158.463C0.688 157.215 1.008 156.122 1.648 155.183C2.288 154.245 3.17333 153.589 4.304 153.215V155.791C3.77067 156.047 3.37067 156.41 3.104 156.879C2.83733 157.338 2.704 157.871 2.704 158.479C2.704 159.13 2.85867 159.711 3.168 160.223C3.46667 160.725 3.89333 161.119 4.448 161.407C5.00267 161.685 5.65333 161.823 6.4 161.823C7.136 161.823 7.78667 161.685 8.352 161.407C8.90667 161.119 9.33867 160.725 9.648 160.223C9.94667 159.711 10.096 159.13 10.096 158.479C10.096 157.871 9.96267 157.338 9.696 156.879C9.41867 156.41 9.01333 156.047 8.48 155.791V153.215C9.62133 153.589 10.512 154.245 11.152 155.183C11.7813 156.111 12.096 157.205 12.096 158.463C12.096 159.53 11.856 160.495 11.376 161.359C10.8853 162.213 10.208 162.89 9.344 163.391C8.48 163.882 7.49867 164.127 6.4 164.127ZM0.832 149.062H12V151.302H0.832L0.832 149.062ZM9.872 140.001V144.449L12 145.185V147.537L0.815999 143.521L0.815999 140.913L12 136.897V139.265L9.872 140.001ZM8.08 140.609L3.408 142.225L8.08 143.841V140.609ZM10.224 133.156V129.476H12V135.396H0.832V133.156H10.224ZM0.832 112.064H12V114.304H4.736L12 117.296V118.992L4.736 122H12V124.24H0.832V121.696L9.136 118.144L0.832 114.592L0.832 112.064ZM2.64 107.609H5.44V103.849H7.216V107.609H10.176L10.176 103.369H12L12 109.849H0.815999L0.815999 103.369H2.64V107.609ZM0.832 97.4295C0.832 96.2562 1.06133 95.2268 1.52 94.3415C1.97867 93.4455 2.63467 92.7575 3.488 92.2775C4.33067 91.7868 5.312 91.5415 6.432 91.5415C7.552 91.5415 8.53333 91.7868 9.376 92.2775C10.208 92.7575 10.8533 93.4455 11.312 94.3415C11.7707 95.2268 12 96.2562 12 97.4295V101.333H0.832V97.4295ZM10.096 97.5095C10.096 96.3362 9.776 95.4295 9.136 94.7895C8.496 94.1495 7.59467 93.8295 6.432 93.8295C5.26933 93.8295 4.36267 94.1495 3.712 94.7895C3.05067 95.4295 2.72 96.3362 2.72 97.5095V99.0935H10.096V97.5095ZM0.832 87.6247H12V89.8647H0.832V87.6247ZM9.872 78.5636V83.0116L12 83.7476V86.0996L0.815999 82.0836V79.4756L12 75.4596V77.8276L9.872 78.5636ZM8.08 79.1716L3.408 80.7876L8.08 82.4036V79.1716ZM12.112 66.29C12.112 67.0687 11.9787 67.7727 11.712 68.402C11.4453 69.0207 11.0613 69.5113 10.56 69.874C10.0587 70.2367 9.46667 70.4233 8.784 70.434V68.034C9.24267 68.002 9.60533 67.842 9.872 67.554C10.1387 67.2553 10.272 66.85 10.272 66.338C10.272 65.8153 10.1493 65.4047 9.904 65.106C9.648 64.8073 9.31733 64.658 8.912 64.658C8.58133 64.658 8.30933 64.7593 8.096 64.962C7.88267 65.1647 7.71733 65.4207 7.6 65.73C7.472 66.0287 7.33333 66.4447 7.184 66.978C6.97067 67.7033 6.76267 68.2953 6.56 68.754C6.34667 69.202 6.032 69.5913 5.616 69.922C5.18933 70.242 4.624 70.402 3.92 70.402C3.25867 70.402 2.68267 70.2367 2.192 69.906C1.70133 69.5753 1.328 69.1113 1.072 68.514C0.805333 67.9167 0.672 67.234 0.672 66.466C0.672 65.314 0.954666 64.3807 1.52 63.666C2.07467 62.9407 2.85333 62.5407 3.856 62.466L3.856 64.93C3.472 64.9513 3.15733 65.1167 2.912 65.426C2.656 65.7247 2.528 66.1247 2.528 66.626C2.528 67.0633 2.64 67.4153 2.864 67.682C3.088 67.938 3.41333 68.066 3.84 68.066C4.13867 68.066 4.38933 67.97 4.592 67.778C4.784 67.5753 4.944 67.33 5.072 67.042C5.18933 66.7433 5.328 66.3273 5.488 65.794C5.70133 65.0687 5.91467 64.4767 6.128 64.018C6.34133 63.5593 6.66133 63.1647 7.088 62.834C7.51467 62.5033 8.07467 62.338 8.768 62.338C9.36533 62.338 9.92 62.4927 10.432 62.802C10.944 63.1113 11.3547 63.5647 11.664 64.162C11.9627 64.7593 12.112 65.4687 12.112 66.29ZM0.832 51.132H12V53.372H7.248V58.156H12L12 60.396H0.832V58.156H5.424V53.372H0.832V51.132ZM9.872 42.0792V46.5272L12 47.2632V49.6152L0.815999 45.5992L0.815999 42.9912L12 38.9752V41.3432L9.872 42.0792ZM8.08 42.6872L3.408 44.3032L8.08 45.9193V42.6872ZM12 31.7141L7.648 34.1781V35.2341H12L12 37.4741H0.832V33.2821C0.832 32.4181 0.986666 31.6821 1.296 31.0741C1.59467 30.4661 2.00533 30.0128 2.528 29.7141C3.04 29.4048 3.616 29.2501 4.256 29.2501C4.992 29.2501 5.65867 29.4635 6.256 29.8901C6.84267 30.3168 7.248 30.9515 7.472 31.7941L12 29.1221V31.7141ZM5.968 35.2341V33.3621C5.968 32.7541 5.824 32.3008 5.536 32.0021C5.23733 31.7035 4.82667 31.5541 4.304 31.5541C3.792 31.5541 3.39733 31.7035 3.12 32.0021C2.832 32.3008 2.688 32.7541 2.688 33.3621V35.2341H5.968ZM0.832 24.9841H12V27.2241H0.832L0.832 24.9841ZM12 13.219V15.459L4.336 20.531H12V22.771H0.815999L0.815999 20.531L8.496 15.459H0.815999L0.815999 13.219H12ZM4.192 3.22937C3.72267 3.48537 3.36533 3.83737 3.12 4.28537C2.87467 4.73337 2.752 5.25604 2.752 5.85337C2.752 6.51471 2.90133 7.10137 3.2 7.61337C3.49867 8.12537 3.92533 8.52537 4.48 8.81337C5.03467 9.10137 5.67467 9.24537 6.4 9.24537C7.14667 9.24537 7.79733 9.10137 8.352 8.81337C8.90667 8.51471 9.33333 8.10404 9.632 7.58137C9.93067 7.05871 10.08 6.45071 10.08 5.75737C10.08 4.90404 9.856 4.20537 9.408 3.66138C8.94933 3.11737 8.31467 2.76004 7.504 2.58937V6.42937H5.792V0.381374H7.744C8.52267 0.530708 9.24267 0.850708 9.904 1.34137C10.5653 1.83204 11.0987 2.46671 11.504 3.24537C11.8987 4.01337 12.096 4.87737 12.096 5.83737C12.096 6.91471 11.856 7.89071 11.376 8.76537C10.8853 9.62937 10.208 10.312 9.344 10.8134C8.48 11.304 7.49867 11.5494 6.4 11.5494C5.30133 11.5494 4.32 11.304 3.456 10.8134C2.58133 10.312 1.904 9.62937 1.424 8.76537C0.933333 7.89071 0.688 6.92004 0.688 5.85337C0.688 4.59471 0.997333 3.50137 1.616 2.57337C2.224 1.64537 3.08267 1.00537 4.192 0.653375V3.22937Z" fill="white"/>
</svg>
