<svg width="14" height="143" viewBox="0 0 14 143" fill="none" xmlns="http://www.w3.org/2000/svg">
<path d="M0.436 133.208H2.47V136.556H13V139.076H2.47V142.424H0.436L0.436 133.208ZM13 124.889L8.104 127.661V128.849H13L13 131.369H0.436L0.436 126.653C0.436 125.681 0.61 124.853 0.957999 124.169C1.294 123.485 1.756 122.975 2.344 122.639C2.92 122.291 3.568 122.117 4.288 122.117C5.116 122.117 5.866 122.357 6.538 122.837C7.198 123.317 7.654 124.031 7.906 124.979L13 121.973V124.889ZM6.214 128.849V126.743C6.214 126.059 6.052 125.549 5.728 125.213C5.392 124.877 4.93 124.709 4.342 124.709C3.766 124.709 3.322 124.877 3.01 125.213C2.686 125.549 2.524 126.059 2.524 126.743V128.849H6.214ZM10.606 112.134V117.138L13 117.966V120.612L0.417999 116.094V113.16L13 108.642V111.306L10.606 112.134ZM8.59 112.818L3.334 114.636L8.59 116.454L8.59 112.818ZM13 96.2073V98.7273L4.378 104.433H13V106.953H0.417999L0.417999 104.433L9.058 98.7273H0.417999V96.2073H13ZM13.126 89.379C13.126 90.255 12.976 91.047 12.676 91.755C12.376 92.451 11.944 93.003 11.38 93.411C10.816 93.819 10.15 94.029 9.382 94.041V91.341C9.898 91.305 10.306 91.125 10.606 90.801C10.906 90.465 11.056 90.009 11.056 89.433C11.056 88.845 10.918 88.383 10.642 88.047C10.354 87.711 9.982 87.543 9.526 87.543C9.154 87.543 8.848 87.657 8.608 87.885C8.368 88.113 8.182 88.401 8.05 88.749C7.906 89.085 7.75 89.553 7.582 90.153C7.342 90.969 7.108 91.635 6.88 92.151C6.64 92.655 6.286 93.093 5.818 93.465C5.338 93.825 4.702 94.005 3.91 94.005C3.166 94.005 2.518 93.819 1.966 93.447C1.414 93.075 0.993999 92.553 0.705999 91.881C0.406 91.209 0.256 90.441 0.256 89.577C0.256 88.281 0.574 87.231 1.21 86.427C1.834 85.611 2.71 85.161 3.838 85.077V87.849C3.406 87.873 3.052 88.059 2.776 88.407C2.488 88.743 2.344 89.193 2.344 89.757C2.344 90.249 2.47 90.645 2.722 90.945C2.974 91.233 3.34 91.377 3.82 91.377C4.156 91.377 4.438 91.269 4.666 91.053C4.882 90.825 5.062 90.549 5.206 90.225C5.338 89.889 5.494 89.421 5.674 88.821C5.914 88.005 6.154 87.339 6.394 86.823C6.634 86.307 6.994 85.863 7.474 85.491C7.954 85.119 8.584 84.933 9.364 84.933C10.036 84.933 10.66 85.107 11.236 85.455C11.812 85.803 12.274 86.313 12.622 86.985C12.958 87.657 13.126 88.455 13.126 89.379ZM4.324 73.5862C4.996 73.5862 5.626 73.7482 6.214 74.0722C6.802 74.3842 7.276 74.8822 7.636 75.5662C7.996 76.2382 8.176 77.0902 8.176 78.1222L8.176 80.2282H13V82.7482H0.436L0.436 78.1222C0.436 77.1502 0.604 76.3222 0.94 75.6382C1.276 74.9542 1.738 74.4442 2.326 74.1082C2.914 73.7602 3.58 73.5862 4.324 73.5862ZM6.142 78.2302C6.142 77.5342 5.986 77.0182 5.674 76.6822C5.35 76.3462 4.9 76.1782 4.324 76.1782C3.1 76.1782 2.488 76.8622 2.488 78.2302L2.488 80.2282H6.142L6.142 78.2302ZM10.606 64.0931V69.0971L13 69.9251V72.5711L0.417999 68.0531V65.1191L13 60.6011L13 63.2651L10.606 64.0931ZM8.59 64.7771L3.334 66.5951L8.59 68.4131L8.59 64.7771ZM13 52.4323L8.104 55.2043L8.104 56.3923H13V58.9123H0.436L0.436 54.1963C0.436 53.2243 0.61 52.3963 0.957999 51.7123C1.294 51.0283 1.756 50.5183 2.344 50.1823C2.92 49.8343 3.568 49.6603 4.288 49.6603C5.116 49.6603 5.866 49.9003 6.538 50.3803C7.198 50.8603 7.654 51.5743 7.906 52.5223L13 49.5163V52.4323ZM6.214 56.3923L6.214 54.2863C6.214 53.6023 6.052 53.0923 5.728 52.7563C5.392 52.4203 4.93 52.2523 4.342 52.2523C3.766 52.2523 3.322 52.4203 3.01 52.7563C2.686 53.0923 2.524 53.6023 2.524 54.2863L2.524 56.3923H6.214ZM2.47 44.861H5.62L5.62 40.631H7.618L7.618 44.861H10.948V40.091H13V47.381H0.417999L0.417999 40.091H2.47L2.47 44.861ZM13 27.055V29.575L4.378 35.281H13V37.801H0.417999L0.417999 35.281L9.058 29.575H0.417999L0.417999 27.055H13ZM6.7 25.1766C5.464 25.1766 4.36 24.9006 3.388 24.3486C2.404 23.7846 1.642 23.0226 1.102 22.0626C0.55 21.0906 0.274 20.0046 0.274 18.8046C0.274 17.4006 0.634 16.1706 1.354 15.1146C2.074 14.0586 3.07 13.3206 4.342 12.9006V15.7986C3.742 16.0866 3.292 16.4946 2.992 17.0226C2.692 17.5386 2.542 18.1386 2.542 18.8226C2.542 19.5546 2.716 20.2086 3.064 20.7846C3.4 21.3486 3.88 21.7926 4.504 22.1166C5.128 22.4286 5.86 22.5846 6.7 22.5846C7.528 22.5846 8.26 22.4286 8.896 22.1166C9.52 21.7926 10.006 21.3486 10.354 20.7846C10.69 20.2086 10.858 19.5546 10.858 18.8226C10.858 18.1386 10.708 17.5386 10.408 17.0226C10.096 16.4946 9.64 16.0866 9.04 15.7986L9.04 12.9006C10.324 13.3206 11.326 14.0586 12.046 15.1146C12.754 16.1586 13.108 17.3886 13.108 18.8046C13.108 20.0046 12.838 21.0906 12.298 22.0626C11.746 23.0226 10.984 23.7846 10.012 24.3486C9.04 24.9006 7.936 25.1766 6.7 25.1766ZM0.436 0.758234L8.626 5.00623H13V7.52623H8.626L0.436 11.7922V8.94823L6.178 6.24823L0.436 3.56623V0.758234Z" fill="white"/>
</svg>
