<svg width="16" height="62" viewBox="0 0 16 62" fill="none" xmlns="http://www.w3.org/2000/svg">
<path d="M1.04 51.12H3.3L3.3 54.84L15 54.84L15 57.64L3.3 57.64L3.3 61.36H1.04L1.04 51.12ZM15 41.877L9.56 44.957V46.277H15V49.077L1.04 49.077L1.04 43.837C1.04 42.757 1.23333 41.837 1.62 41.077C1.99333 40.317 2.50667 39.7504 3.16 39.377C3.8 38.9904 4.52 38.797 5.32 38.797C6.24 38.797 7.07333 39.0637 7.82 39.597C8.55333 40.1304 9.06 40.9237 9.34 41.977L15 38.637V41.877ZM7.46 46.277L7.46 43.937C7.46 43.177 7.28 42.6104 6.92 42.237C6.54667 41.8637 6.03333 41.677 5.38 41.677C4.74 41.677 4.24667 41.8637 3.9 42.237C3.54 42.6104 3.36 43.177 3.36 43.937L3.36 46.277H7.46ZM1.04 33.5045H9.68C10.6267 33.5045 11.3533 33.2579 11.86 32.7645C12.3533 32.2712 12.6 31.5779 12.6 30.6845C12.6 29.7779 12.3533 29.0779 11.86 28.5845C11.3533 28.0912 10.6267 27.8445 9.68 27.8445L1.04 27.8445L1.04 25.0245L9.66 25.0245C10.8467 25.0245 11.8533 25.2845 12.68 25.8045C13.4933 26.3112 14.1067 26.9979 14.52 27.8645C14.9333 28.7179 15.14 29.6712 15.14 30.7245C15.14 31.7645 14.9333 32.7112 14.52 33.5645C14.1067 34.4045 13.4933 35.0712 12.68 35.5645C11.8533 36.0579 10.8467 36.3045 9.66 36.3045H1.04V33.5045ZM15.14 17.4992C15.14 18.4726 14.9733 19.3526 14.64 20.1392C14.3067 20.9126 13.8267 21.5259 13.2 21.9792C12.5733 22.4326 11.8333 22.6659 10.98 22.6792V19.6792C11.5533 19.6392 12.0067 19.4392 12.34 19.0792C12.6733 18.7059 12.84 18.1992 12.84 17.5592C12.84 16.9059 12.6867 16.3926 12.38 16.0192C12.06 15.6459 11.6467 15.4592 11.14 15.4592C10.7267 15.4592 10.3867 15.5859 10.12 15.8392C9.85334 16.0926 9.64667 16.4126 9.5 16.7992C9.34 17.1726 9.16667 17.6926 8.98 18.3592C8.71333 19.2659 8.45334 20.0059 8.2 20.5792C7.93333 21.1392 7.54 21.6259 7.02 22.0392C6.48667 22.4392 5.78 22.6392 4.9 22.6392C4.07333 22.6392 3.35333 22.4326 2.74 22.0192C2.12667 21.6059 1.66 21.0259 1.34 20.2792C1.00667 19.5326 0.840001 18.6792 0.840001 17.7192C0.840001 16.2792 1.19333 15.1126 1.9 14.2192C2.59333 13.3126 3.56667 12.8126 4.82 12.7192L4.82 15.7992C4.34 15.8259 3.94667 16.0326 3.64 16.4192C3.32 16.7926 3.16 17.2926 3.16 17.9192C3.16 18.4659 3.3 18.9059 3.58 19.2392C3.86 19.5592 4.26667 19.7192 4.8 19.7192C5.17333 19.7192 5.48667 19.5992 5.74 19.3592C5.98 19.1059 6.18 18.7992 6.34 18.4392C6.48667 18.0659 6.66 17.5459 6.86 16.8792C7.12667 15.9726 7.39333 15.2326 7.66 14.6592C7.92667 14.0859 8.32667 13.5926 8.86 13.1792C9.39333 12.7659 10.0933 12.5592 10.96 12.5592C11.7067 12.5592 12.4 12.7526 13.04 13.1392C13.68 13.5259 14.1933 14.0926 14.58 14.8392C14.9533 15.5859 15.14 16.4726 15.14 17.4992ZM1.04 0.631718H3.3V4.35172L15 4.35172V7.15172L3.3 7.15172V10.8717H1.04L1.04 0.631718Z" fill="white"/>
</svg>
