<svg width="227" height="227" viewBox="0 0 227 227" fill="none" xmlns="http://www.w3.org/2000/svg">
<path d="M182.78 99.0173C183.734 102.649 187.457 104.829 191.134 103.83C194.766 102.876 196.945 99.1535 195.946 95.4761C194.993 91.8441 191.27 89.6649 187.593 90.6637C184.006 91.6625 181.827 95.3853 182.78 99.0173Z" fill="#2A4C87"/>
<path d="M173.564 106.281C176.016 105.6 177.514 103.058 176.833 100.606C176.152 98.1548 173.61 96.6566 171.158 97.3376C168.706 98.0186 167.208 100.561 167.889 103.013C168.525 105.464 171.067 106.917 173.564 106.281Z" fill="#2A4C87"/>
<path d="M159.944 108.642C161.76 108.143 162.85 106.281 162.35 104.465C161.851 102.649 159.99 101.56 158.174 102.059C156.358 102.559 155.268 104.42 155.767 106.236C156.267 108.052 158.128 109.142 159.944 108.642Z" fill="#2A4C87"/>
<path d="M149.366 110.231C150.501 109.913 151.182 108.733 150.91 107.598C150.637 106.463 149.411 105.782 148.276 106.054C147.141 106.372 146.46 107.553 146.733 108.688C147.005 109.823 148.186 110.504 149.366 110.231Z" fill="#2E4E88"/>
<path d="M177.741 85.2159C179.466 88.1669 183.234 89.2111 186.185 87.4859C189.136 85.7607 190.181 81.9925 188.455 79.0415C186.73 76.0905 182.962 75.0463 180.011 76.7715C177.06 78.4967 176.016 82.2649 177.741 85.2159Z" fill="#1F3D70"/>
<path d="M164.076 93.07C165.256 95.1584 167.889 95.8394 169.978 94.659C172.066 93.4786 172.747 90.8454 171.567 88.757C170.386 86.6686 167.753 85.9876 165.665 87.168C163.622 88.3484 162.895 90.9816 164.076 93.07Z" fill="#1F3D70"/>
<path d="M154.36 95.113C152.862 95.9756 152.362 97.837 153.225 99.3352C154.088 100.833 155.949 101.333 157.447 100.47C158.945 99.6076 159.445 97.7462 158.582 96.248C157.765 94.7952 155.858 94.2958 154.36 95.113Z" fill="#1F3D70"/>
<path d="M145.689 101.378C144.735 101.923 144.372 103.149 144.917 104.102C145.462 105.056 146.687 105.419 147.641 104.874C148.594 104.329 148.957 103.103 148.413 102.15C147.868 101.197 146.642 100.833 145.689 101.378Z" fill="#1F3D70"/>
<path d="M177.06 73.0939C179.239 70.9147 179.239 67.4189 177.06 65.2397C174.881 63.0605 171.385 63.0605 169.206 65.2397C167.027 67.4189 167.027 70.9147 169.206 73.0939C171.34 75.2731 174.881 75.2731 177.06 73.0939Z" fill="#194C88"/>
<path d="M163.485 78.769C161.896 77.18 159.354 77.18 157.81 78.769C156.221 80.358 156.221 82.9004 157.81 84.444C159.399 86.033 161.942 86.033 163.485 84.444C165.074 82.855 165.074 80.3126 163.485 78.769Z" fill="#194C88"/>
<path d="M148.957 89.3473C147.868 90.4369 147.868 92.2075 148.957 93.2971C150.047 94.3867 151.818 94.3867 152.907 93.2971C153.997 92.2075 153.997 90.4369 152.907 89.3927C151.818 88.2577 150.047 88.2577 148.957 89.3473Z" fill="#194C88"/>
<path d="M142.102 100.152C142.828 100.879 144.009 100.879 144.735 100.152C145.462 99.426 145.462 98.2456 144.735 97.5192C144.009 96.7928 142.828 96.7928 142.102 97.5192C141.376 98.2456 141.376 99.426 142.102 100.152Z" fill="#194C88"/>
<path d="M157.493 63.7416C159.99 65.1944 163.213 64.3318 164.666 61.8348C166.119 59.3378 165.256 56.1144 162.759 54.6616C160.262 53.2088 157.039 54.0714 155.586 56.5684C154.088 59.0654 154.95 62.2888 157.493 63.7416Z" fill="#3468A3"/>
<path d="M148.095 72.5946C147.051 74.3652 147.686 76.6352 149.457 77.6794C151.227 78.7236 153.497 78.088 154.542 76.3174C155.586 74.5468 154.95 72.2768 153.18 71.2326C151.364 70.1884 149.094 70.824 148.095 72.5946Z" fill="#3468A3"/>
<path d="M145.643 84.217C144.463 83.536 142.965 83.9446 142.284 85.125C141.603 86.3054 142.011 87.8036 143.192 88.4846C144.372 89.1656 145.87 88.757 146.551 87.5766C147.232 86.3962 146.824 84.898 145.643 84.217Z" fill="#3468A3"/>
<path d="M139.923 94.1142C139.106 93.6602 138.061 93.9326 137.607 94.7498C137.153 95.567 137.426 96.6112 138.243 97.0652C139.06 97.5192 140.104 97.2468 140.558 96.4296C141.012 95.6124 140.74 94.5682 139.923 94.1142Z" fill="#3468A3"/>
<path d="M143.691 57.7033C146.324 58.4297 149.048 56.8408 149.729 54.2076C150.456 51.5743 148.867 48.8503 146.233 48.1693C143.6 47.4883 140.876 49.0319 140.195 51.6652C139.469 54.2984 141.058 57.0223 143.691 57.7033Z" fill="#4C8DCB"/>
<path d="M139.514 73.2302C141.33 73.7296 143.192 72.64 143.691 70.824C144.19 69.008 143.101 67.1466 141.285 66.6472C139.469 66.1478 137.607 67.2374 137.108 69.0534C136.654 70.8694 137.698 72.7308 139.514 73.2302Z" fill="#4C8DCB"/>
<path d="M136.245 85.4883C137.471 85.8061 138.742 85.0797 139.06 83.8539C139.378 82.6281 138.652 81.3569 137.426 81.0391C136.2 80.7213 134.929 81.4477 134.611 82.6735C134.293 83.8539 135.02 85.1251 136.245 85.4883Z" fill="#4C8DCB"/>
<path d="M132.613 93.1154C132.386 93.9326 132.886 94.7952 133.703 95.0222C134.52 95.2492 135.383 94.7498 135.61 93.9326C135.837 93.1154 135.337 92.2528 134.52 92.0258C133.658 91.7988 132.795 92.2982 132.613 93.1154Z" fill="#4C8DCB"/>
<path d="M128.709 55.4334C131.251 55.4334 133.34 53.345 133.34 50.8026C133.34 48.2602 131.251 46.1718 128.709 46.1718C126.167 46.1718 124.078 48.2602 124.078 50.8026C124.078 53.3904 126.167 55.4334 128.709 55.4334Z" fill="#3498B3"/>
<path d="M128.709 65.3306C126.984 65.3306 125.622 66.6926 125.622 68.4178C125.622 70.143 126.984 71.505 128.709 71.505C130.434 71.505 131.796 70.143 131.796 68.4178C131.796 66.738 130.434 65.3306 128.709 65.3306Z" fill="#3498B3"/>
<path d="M130.888 82.174C130.888 80.9936 129.935 79.9948 128.709 79.9948C127.483 79.9948 126.53 80.9482 126.53 82.174C126.53 83.3998 127.483 84.3532 128.709 84.3532C129.935 84.3532 130.888 83.3544 130.888 82.174Z" fill="#3498B3"/>
<path d="M128.709 91.4355C127.937 91.4355 127.302 92.0711 127.302 92.8429C127.302 93.6147 127.937 94.2504 128.709 94.2504C129.481 94.2504 130.116 93.6147 130.116 92.8429C130.116 92.0711 129.481 91.4355 128.709 91.4355Z" fill="#3498B3"/>
<path d="M113.591 57.1586C115.906 56.523 117.268 54.1622 116.633 51.8468C115.997 49.5314 113.636 48.1694 111.321 48.805C109.005 49.4406 107.643 51.8014 108.279 54.1168C108.915 56.3868 111.321 57.7488 113.591 57.1586Z" fill="#0AA496"/>
<path d="M114.363 70.6878C114.771 72.186 116.269 73.0486 117.768 72.64C119.266 72.2314 120.128 70.7332 119.72 69.235C119.311 67.7368 117.813 66.8742 116.315 67.2828C114.862 67.6914 113.954 69.235 114.363 70.6878Z" fill="#0AA496"/>
<path d="M118.676 83.8084C118.948 84.898 120.083 85.5336 121.127 85.2158C122.217 84.9434 122.852 83.8084 122.535 82.7642C122.262 81.6746 121.127 81.039 120.083 81.3568C118.993 81.6292 118.403 82.7188 118.676 83.8084C118.676 83.763 118.676 83.763 118.676 83.8084Z" fill="#0AA496"/>
<path d="M122.171 93.8872C122.353 94.5682 123.034 94.9314 123.67 94.7498C124.351 94.5682 124.714 93.8872 124.532 93.2516C124.351 92.5706 123.67 92.2074 123.034 92.389C122.398 92.5706 121.99 93.2062 122.171 93.8872Z" fill="#0AA496"/>
<path d="M99.3806 62.7428C101.287 61.6532 101.968 59.1562 100.879 57.2494C99.7892 55.3426 97.2922 54.6616 95.3854 55.7512C93.4786 56.8408 92.7976 59.3378 93.8872 61.2446C95.0222 63.1968 97.4738 63.8324 99.3806 62.7428Z" fill="#00AA75"/>
<path d="M107.416 76.6352C108.597 75.9542 109.005 74.456 108.324 73.2756C107.643 72.0952 106.145 71.6866 104.965 72.3676C103.784 73.0486 103.376 74.5468 104.057 75.7272C104.692 76.9076 106.236 77.3162 107.416 76.6352Z" fill="#00AA75"/>
<path d="M113.954 88.0306C114.862 87.5312 115.134 86.3962 114.635 85.4882C114.136 84.5802 113.001 84.3078 112.093 84.8072C111.185 85.3066 110.912 86.4416 111.412 87.3496C111.956 88.2122 113.091 88.53 113.954 88.0306Z" fill="#00AA75"/>
<path d="M119.311 95.113C118.993 94.6136 118.358 94.432 117.813 94.7044C117.314 95.0222 117.132 95.6578 117.404 96.2026C117.722 96.702 118.358 96.8836 118.857 96.6112C119.447 96.2934 119.629 95.6124 119.311 95.113Z" fill="#00AA75"/>
<path d="M86.9864 71.8682C88.4392 70.4154 88.4392 68.0546 86.9864 66.6018C85.5336 65.149 83.1728 65.149 81.72 66.6018C80.2672 68.0546 80.2672 70.4154 81.72 71.8682C83.2182 73.321 85.579 73.321 86.9864 71.8682Z" fill="#4FBA6A"/>
<path d="M98.3818 80.1764C97.5192 79.3138 96.1572 79.3138 95.34 80.1764C94.4774 81.039 94.4774 82.401 95.34 83.2182C96.2026 84.0808 97.5646 84.0808 98.3818 83.2182C99.199 82.3556 99.199 80.9936 98.3818 80.1764Z" fill="#4FBA6A"/>
<path d="M107.78 90.2098C107.099 89.5288 106.054 89.5288 105.373 90.2098C104.692 90.8908 104.692 91.935 105.373 92.616C106.054 93.297 107.099 93.297 107.78 92.616C108.415 91.935 108.415 90.8908 107.78 90.2098Z" fill="#4FBA6A"/>
<path d="M114.771 98.291C114.408 97.9278 113.818 97.9732 113.5 98.3364C113.137 98.6996 113.182 99.2898 113.545 99.6076C113.909 99.9254 114.453 99.9254 114.817 99.6076C115.134 99.2444 115.134 98.6542 114.771 98.291Z" fill="#4FBA6A"/>
<path d="M72.64 85.0796C74.2744 86.033 76.3628 85.4428 77.2708 83.8538C78.2242 82.2194 77.634 80.131 76.045 79.223C74.4106 78.2696 72.3222 78.8598 71.4142 80.4488C70.4608 82.0378 71.0056 84.1262 72.64 85.0796Z" fill="#7EC45F"/>
<path d="M90.6184 89.438C89.7104 88.9386 88.6208 89.2564 88.076 90.119C87.5766 91.027 87.8944 92.1166 88.757 92.6614C89.665 93.1608 90.7546 92.8884 91.2994 91.9804C91.7988 91.0724 91.481 89.9374 90.6184 89.438Z" fill="#7EC45F"/>
<path d="M102.377 96.5659C101.651 96.1573 100.697 96.3843 100.289 97.1561C99.88 97.8825 100.107 98.8359 100.879 99.2445C101.605 99.6531 102.559 99.426 102.967 98.6996C103.376 97.9732 103.103 97.0199 102.377 96.5659Z" fill="#7EC45F"/>
<path d="M191.543 106.054C187.457 106.054 184.097 109.369 184.097 113.5C184.097 117.586 187.411 120.946 191.543 120.946C195.629 120.946 198.943 117.631 198.988 113.545C198.943 109.414 195.629 106.054 191.543 106.054Z" fill="#4C609B"/>
<path d="M179.239 113.5C179.239 110.549 176.878 108.188 173.927 108.188C170.976 108.188 168.616 110.549 168.616 113.5C168.616 116.451 170.976 118.812 173.927 118.812C176.833 118.812 179.239 116.451 179.239 113.5Z" fill="#4C609B"/>
<path d="M160.171 109.868C158.174 109.868 156.539 111.502 156.539 113.5C156.539 115.498 158.174 117.132 160.171 117.132C162.169 117.132 163.803 115.498 163.803 113.5C163.803 111.502 162.169 109.868 160.171 109.868Z" fill="#4C609B"/>
<path d="M151.863 113.5C151.863 112.183 150.819 111.139 149.502 111.139C148.186 111.139 147.141 112.183 147.141 113.5C147.141 114.817 148.186 115.861 149.502 115.861C150.819 115.861 151.863 114.817 151.863 113.5Z" fill="#54669F"/>
<path d="M191.134 123.125C187.502 122.126 183.779 124.305 182.78 127.937C181.782 131.569 183.961 135.292 187.593 136.291C191.225 137.29 194.948 135.11 195.946 131.478C195.946 131.478 195.946 131.478 195.946 131.433C196.9 127.846 194.721 124.124 191.134 123.125Z" fill="#746FA7"/>
<path d="M171.158 129.617C173.61 130.298 176.152 128.8 176.833 126.348C177.514 123.897 176.016 121.354 173.564 120.673C171.113 119.992 168.57 121.49 167.889 123.942C167.208 126.394 168.661 128.936 171.158 129.617Z" fill="#746FA7"/>
<path d="M158.174 124.895C159.99 125.395 161.851 124.305 162.35 122.489C162.85 120.673 161.76 118.812 159.944 118.312C158.128 117.813 156.267 118.903 155.767 120.719C155.313 122.535 156.358 124.396 158.174 124.895Z" fill="#746FA7"/>
<path d="M148.231 120.946C149.366 121.263 150.546 120.582 150.864 119.402C151.182 118.267 150.501 117.087 149.321 116.769C148.186 116.451 147.005 117.132 146.687 118.312C146.37 119.402 147.051 120.628 148.231 120.946C148.231 120.9 148.231 120.9 148.231 120.946Z" fill="#746FA7"/>
<path d="M186.185 139.469C183.234 137.744 179.466 138.788 177.741 141.739C176.016 144.69 177.06 148.458 180.011 150.183C182.962 151.908 186.73 150.864 188.455 147.913C190.135 144.962 189.136 141.194 186.185 139.469Z" fill="#99558E"/>
<path d="M171.612 138.198C172.792 136.109 172.111 133.476 170.023 132.296C167.935 131.115 165.301 131.796 164.121 133.885C162.941 135.973 163.622 138.606 165.71 139.787C167.753 140.967 170.386 140.241 171.612 138.198Z" fill="#99558E"/>
<path d="M158.582 130.707C159.445 129.208 158.945 127.347 157.447 126.484C155.949 125.622 154.088 126.121 153.225 127.619C152.362 129.118 152.862 130.979 154.36 131.842C155.858 132.659 157.72 132.159 158.582 130.707Z" fill="#99558E"/>
<path d="M148.458 124.805C149.003 123.851 148.685 122.625 147.732 122.035C146.778 121.49 145.552 121.808 144.962 122.762C144.372 123.715 144.735 124.941 145.689 125.531C145.689 125.531 145.689 125.531 145.734 125.531C146.687 126.076 147.913 125.758 148.458 124.805Z" fill="#99558E"/>
<path d="M169.16 153.861C166.981 156.04 166.981 159.536 169.16 161.715C171.34 163.894 174.835 163.894 177.015 161.715C179.194 159.536 179.194 156.04 177.015 153.861C174.881 151.727 171.34 151.727 169.16 153.861Z" fill="#AF3379"/>
<path d="M163.485 148.186C165.074 146.597 165.074 144.054 163.485 142.511C161.896 140.922 159.354 140.922 157.81 142.511C156.221 144.1 156.221 146.642 157.81 148.186C159.354 149.775 161.896 149.775 163.485 148.186Z" fill="#AF3379"/>
<path d="M152.907 137.607C153.997 136.518 153.997 134.747 152.907 133.658C151.818 132.568 150.047 132.568 148.957 133.658C147.868 134.747 147.868 136.518 148.957 137.562C150.047 138.697 151.818 138.697 152.907 137.607Z" fill="#AF3379"/>
<path d="M142.102 129.39C142.828 130.116 144.009 130.116 144.735 129.39C145.462 128.664 145.462 127.483 144.735 126.757C144.009 126.03 142.828 126.03 142.102 126.757C141.376 127.483 141.376 128.664 142.102 129.39Z" fill="#AF3379"/>
<path d="M157.493 163.213C154.996 164.666 154.133 167.889 155.586 170.386C157.039 172.883 160.262 173.746 162.759 172.293C165.256 170.84 166.119 167.617 164.666 165.12C163.213 162.623 159.99 161.76 157.493 163.213Z" fill="#BE266A"/>
<path d="M154.496 150.683C153.452 148.912 151.227 148.276 149.411 149.321C147.641 150.365 147.005 152.589 148.049 154.405C149.094 156.176 151.318 156.812 153.134 155.767C154.905 154.723 155.54 152.453 154.496 150.683Z" fill="#BE266A"/>
<path d="M145.643 142.738C146.824 142.057 147.232 140.558 146.551 139.378C145.87 138.198 144.372 137.789 143.192 138.47C142.011 139.151 141.603 140.649 142.284 141.83C142.965 143.01 144.463 143.419 145.643 142.738Z" fill="#BE266A"/>
<path d="M138.243 129.889C137.426 130.343 137.153 131.388 137.607 132.205C138.061 133.022 139.106 133.294 139.923 132.84C140.74 132.386 141.012 131.342 140.558 130.525C140.104 129.708 139.06 129.435 138.243 129.889Z" fill="#BE266A"/>
<path d="M143.691 169.251C141.058 169.978 139.469 172.656 140.195 175.289C140.922 177.923 143.6 179.512 146.233 178.785C148.867 178.059 150.456 175.38 149.729 172.747C149.048 170.114 146.324 168.525 143.691 169.251Z" fill="#D4525C"/>
<path d="M141.285 160.262C143.101 159.763 144.19 157.901 143.691 156.085C143.192 154.269 141.33 153.18 139.514 153.679C137.698 154.178 136.654 156.04 137.108 157.856C137.607 159.717 139.469 160.761 141.285 160.262C141.285 160.307 141.285 160.307 141.285 160.262Z" fill="#D4525C"/>
<path d="M139.06 143.101C138.742 141.875 137.471 141.149 136.245 141.466C135.02 141.784 134.293 143.055 134.611 144.281C134.929 145.507 136.2 146.233 137.426 145.916C138.697 145.643 139.423 144.372 139.06 143.101C139.06 143.146 139.06 143.146 139.06 143.101Z" fill="#D4525C"/>
<path d="M135.564 133.022C135.337 132.205 134.475 131.705 133.658 131.932C132.84 132.159 132.341 133.022 132.568 133.839C132.795 134.656 133.612 135.156 134.475 134.929C135.292 134.702 135.791 133.839 135.564 133.022Z" fill="#D4525C"/>
<path d="M128.709 171.521C126.167 171.521 124.078 173.61 124.078 176.152C124.078 178.694 126.167 180.783 128.709 180.783C131.251 180.783 133.34 178.74 133.34 176.152C133.34 173.61 131.297 171.521 128.709 171.521Z" fill="#E0654F"/>
<path d="M125.622 158.537C125.622 160.262 126.984 161.624 128.709 161.624C130.434 161.624 131.796 160.262 131.796 158.537C131.796 156.812 130.434 155.45 128.709 155.45C127.029 155.45 125.622 156.812 125.622 158.537Z" fill="#E0654F"/>
<path d="M128.709 146.914C129.889 146.914 130.888 145.961 130.888 144.735C130.888 143.509 129.935 142.556 128.709 142.556C127.529 142.556 126.53 143.509 126.53 144.735C126.575 145.961 127.529 146.914 128.709 146.914C128.709 146.96 128.709 146.96 128.709 146.914Z" fill="#E0654F"/>
<path d="M128.709 132.704C127.937 132.704 127.302 133.34 127.302 134.112C127.302 134.883 127.937 135.519 128.709 135.519C129.481 135.519 130.116 134.883 130.116 134.112C130.116 133.34 129.481 132.704 128.709 132.704Z" fill="#E0654F"/>
<path d="M113.591 169.796C111.275 169.16 108.915 170.568 108.279 172.838C107.643 175.153 109.051 177.514 111.321 178.15C113.636 178.785 115.997 177.378 116.633 175.108C117.268 172.792 115.906 170.432 113.591 169.796Z" fill="#F57F2A"/>
<path d="M117.768 154.269C116.269 153.861 114.771 154.769 114.363 156.221C113.954 157.72 114.862 159.218 116.315 159.626C117.813 160.035 119.311 159.127 119.72 157.674C120.128 156.221 119.266 154.678 117.768 154.269Z" fill="#F57F2A"/>
<path d="M121.127 141.739C120.038 141.466 118.948 142.102 118.676 143.146C118.403 144.236 119.039 145.325 120.083 145.598C121.173 145.87 122.262 145.235 122.535 144.19C122.852 143.146 122.217 142.057 121.127 141.739Z" fill="#F57F2A"/>
<path d="M124.578 133.703C124.759 133.022 124.351 132.341 123.715 132.205C123.079 132.069 122.353 132.432 122.217 133.067C122.081 133.703 122.444 134.429 123.079 134.566C123.715 134.747 124.396 134.384 124.578 133.703Z" fill="#F57F2A"/>
<path d="M99.3806 164.212C97.4738 163.122 95.0222 163.758 93.8872 165.665C92.7976 167.571 93.4332 170.023 95.34 171.158C97.2468 172.248 99.6984 171.612 100.833 169.705C101.968 167.798 101.287 165.347 99.3806 164.212Z" fill="#F89828"/>
<path d="M107.416 150.319C106.236 149.638 104.738 150.047 104.057 151.227C103.376 152.408 103.784 153.906 104.965 154.587C106.145 155.268 107.643 154.859 108.324 153.679C109.005 152.499 108.597 151 107.416 150.319Z" fill="#F89828"/>
<path d="M112.138 142.147C113.046 142.647 114.181 142.374 114.68 141.466C115.18 140.558 114.907 139.423 113.999 138.924C113.091 138.425 111.956 138.697 111.457 139.605C110.958 140.513 111.23 141.648 112.138 142.147Z" fill="#F89828"/>
<path d="M118.948 130.343C118.449 130.026 117.768 130.207 117.495 130.752C117.177 131.251 117.359 131.932 117.904 132.205C118.403 132.523 119.084 132.341 119.357 131.796C119.629 131.342 119.447 130.661 118.948 130.343C118.948 130.389 118.948 130.389 118.948 130.343Z" fill="#F89828"/>
<path d="M81.7654 155.086C80.3126 156.539 80.3126 158.9 81.7654 160.353C83.2182 161.806 85.579 161.806 87.0318 160.353C88.4846 158.9 88.4846 156.539 87.0318 155.086C85.579 153.634 83.2182 153.634 81.7654 155.086Z" fill="#FEC127"/>
<path d="M95.34 143.736C94.4774 144.599 94.4774 145.961 95.34 146.778C96.2026 147.641 97.5646 147.641 98.3818 146.778C99.199 145.916 99.2444 144.554 98.3818 143.736C97.5646 142.874 96.1572 142.874 95.34 143.736Z" fill="#FEC127"/>
<path d="M105.373 134.339C104.692 135.02 104.692 136.064 105.373 136.745C106.054 137.426 107.099 137.426 107.78 136.745C108.461 136.064 108.461 135.02 107.78 134.339C107.099 133.658 106.009 133.658 105.373 134.339Z" fill="#FEC127"/>
<path d="M114.771 127.347C114.408 126.984 113.818 127.029 113.5 127.392C113.137 127.756 113.182 128.346 113.545 128.664C113.909 128.981 114.453 128.981 114.817 128.664C115.134 128.3 115.134 127.71 114.771 127.347Z" fill="#FEC127"/>
<path d="M72.7308 141.784C71.0964 142.738 70.5516 144.781 71.505 146.415C72.4584 148.049 74.5014 148.594 76.1358 147.641C77.7702 146.687 78.315 144.644 77.3616 143.01C76.4536 141.376 74.3652 140.831 72.7308 141.784Z" fill="#FED627"/>
<path d="M88.757 134.293C87.8944 134.793 87.5766 135.928 88.076 136.836C88.5754 137.698 89.7104 138.016 90.6184 137.517C91.481 137.017 91.7988 135.882 91.2994 134.974C90.8 134.112 89.665 133.794 88.757 134.293Z" fill="#FED627"/>
<path d="M100.833 127.71C100.107 128.119 99.8346 129.072 100.289 129.799C100.697 130.525 101.651 130.797 102.377 130.343C103.103 129.935 103.376 128.981 102.922 128.255C102.513 127.529 101.56 127.256 100.833 127.71Z" fill="#FED627"/>
<path d="M65.83 102.695H71.278V123.67H65.83V102.695ZM69.1442 93.3425C67.4644 92.8885 65.7392 93.8873 65.2852 95.5671C64.8312 97.2469 65.83 98.9721 67.5098 99.4261C69.1896 99.8801 70.9148 98.8813 71.3688 97.2015C71.8228 95.5217 70.824 93.7511 69.1442 93.3425ZM88.1214 124.124C86.8048 124.124 85.4882 123.897 84.2624 123.352C83.1728 122.852 82.2194 122.081 81.493 121.127V134.157H76.1812V102.695H81.4476V105.6C82.1286 104.556 83.082 103.739 84.217 103.149C85.3974 102.559 86.714 102.241 88.076 102.241C89.3926 102.241 90.6638 102.513 91.8896 103.013C93.1154 103.512 94.205 104.284 95.113 105.192C96.0664 106.191 96.8382 107.371 97.3376 108.642C97.9278 110.095 98.2002 111.593 98.1548 113.137C98.2002 114.68 97.8824 116.224 97.2922 117.677C96.7474 118.948 95.9756 120.128 95.0222 121.127C93.2516 123.034 90.7092 124.124 88.1214 124.124ZM87.0318 119.039C87.8036 119.039 88.5754 118.903 89.3018 118.585C89.9828 118.267 90.6184 117.858 91.1632 117.314C91.708 116.769 92.1166 116.133 92.389 115.452C92.9792 113.954 92.9792 112.32 92.389 110.821C92.1166 110.14 91.6626 109.505 91.1632 108.96C90.6184 108.415 89.9828 108.007 89.3018 107.689C88.5754 107.371 87.8036 107.235 87.0318 107.235C85.4882 107.235 83.99 107.87 82.855 108.96C82.3102 109.505 81.9016 110.14 81.6292 110.821C81.039 112.32 81.039 113.954 81.6292 115.407C81.9016 116.088 82.3102 116.723 82.855 117.268C83.99 118.449 85.4882 119.084 87.0318 119.039ZM102.059 102.695H107.326V105.918C107.78 104.783 108.551 103.83 109.596 103.194C110.685 102.604 111.866 102.286 113.137 102.332C113.818 102.332 114.453 102.422 115.089 102.559C115.634 102.695 116.179 102.876 116.678 103.149L114.726 108.415C114.363 108.188 113.954 108.007 113.545 107.87C113.001 107.734 112.456 107.643 111.911 107.643C110.685 107.598 109.505 108.007 108.597 108.778C107.78 109.55 107.371 110.821 107.371 112.547V123.624H102.059V102.695ZM128.527 124.124C127.029 124.124 125.531 123.851 124.124 123.261C122.807 122.716 121.627 121.899 120.582 120.9C118.539 118.857 117.404 116.088 117.404 113.182C117.404 111.729 117.677 110.277 118.222 108.915C118.766 107.598 119.538 106.418 120.537 105.419C124.941 101.151 131.932 101.151 136.336 105.419C138.379 107.462 139.56 110.231 139.56 113.137C139.56 114.59 139.287 116.042 138.697 117.359C138.152 118.676 137.335 119.856 136.382 120.855C135.383 121.854 134.202 122.671 132.84 123.216C131.524 123.806 130.026 124.124 128.527 124.124ZM128.573 119.039C129.345 119.039 130.116 118.903 130.843 118.585C131.524 118.267 132.114 117.858 132.659 117.359C133.204 116.814 133.612 116.179 133.885 115.498C134.475 113.999 134.475 112.365 133.885 110.912C133.612 110.231 133.204 109.596 132.659 109.051C132.114 108.506 131.524 108.097 130.843 107.825C129.39 107.189 127.756 107.189 126.348 107.825C125.667 108.143 125.077 108.551 124.532 109.051C123.987 109.596 123.579 110.231 123.306 110.912C122.716 112.41 122.716 114.045 123.306 115.498C123.579 116.179 123.987 116.814 124.532 117.359C125.077 117.904 125.667 118.312 126.348 118.585C127.029 118.857 127.801 119.039 128.573 119.039ZM27.921 102.695H33.369L37.5912 116.088L42.5852 102.695H47.3068L52.21 116.088L56.6138 102.695H62.0618L54.934 123.67H49.8946L44.9006 110.004L39.8612 123.67H34.731L27.921 102.695Z" fill="#351A55"/>
</svg>
